<?xml version="1.0" encoding="UTF-8"?><svg id="_ÎÓÈ_1" xmlns="http://www.w3.org/2000/svg" xmlns:xlink="http://www.w3.org/1999/xlink" viewBox="0 0 4000 4000"><defs><style>.cls-1{fill:url(#_ÂÁ_Ï_ÌÌ_È_ËÂÌÚ_25);}.cls-2{fill:#f4f3f2;}.cls-3{fill:#fff;}.cls-4{fill:#7c7c7c;}.cls-5{fill:#a5a8a8;}</style><linearGradient id="_ÂÁ_Ï_ÌÌ_È_ËÂÌÚ_25" x1="1999.8" y1="3686.39" x2="1999.8" y2="1689.27" gradientUnits="userSpaceOnUse"><stop offset="0" stop-color="#f4f3f2"/><stop offset=".15" stop-color="#eeedec"/><stop offset=".35" stop-color="#dedddd"/><stop offset=".57" stop-color="#c4c4c3"/><stop offset=".8" stop-color="#a0a0a0"/><stop offset="1" stop-color="#7c7c7c"/></linearGradient></defs><rect class="cls-3" width="4000" height="4000"/><path class="cls-4" d="m2966.41,1404.12c-96.98-727.47-470.23-796.77-470.23-796.77,0,0-86.32-146.62-615.74-122.11-740.05,34.26-860.01,804.57-1114.17,1630.76-139.17,452.39,641.91,802.95,896.61,886.49,249.11,81.91,472.67,53.02,472.67,53.02,80.8-4.58,668.08-233.71,719.58-280.59,685.89-624.42,198.18-719.03,111.28-1370.8Z"/><path class="cls-1" d="m2940.2,3271.2l-168.81-57.56c-56.32-19.2-114.3-31.85-172.7-41.89-92.65-15.93-163.13-83.02-205.97-136.52-30.8-38.47-47.09-87.64-45.9-138.12l11.4-486.65h-716.85l11.4,486.65c1.18,50.48-15.1,99.65-45.9,138.12-42.84,53.5-115.34,132.67-207.99,148.6-58.4,10.04-339.48,87.36-339.48,87.36l315.9,606.18-61.5,91.79h1372l-61.5-91.79,315.9-606.18Z"/><path class="cls-2" d="m2871.57,1660.91c-110.16-123.69-180.05,63.13-208.64,166.95-7.67-61.76-34.51-36.41-135.16-167.53,0,0-291.87-333.64-226.03-506.63-9.67,24.73-107.07,597.51-946.17,508.47l-3.36,240.66s-.07-.26-.19-.69c-3.45-17.59-78.68-390.3-223.3-227.92-137.24,154.1,113.76,491.1,256.73,471.42.86,2.53,1.59,5.09,2.47,7.62,25.44,73.77,58.61,145.11,100.95,210.74,43.75,67.87,97.48,129.34,160.07,180.42,33.17,27.17,68.79,51.39,106.13,72.35,37.85,21.17,77.95,41.93,119.26,57.6,18.22,6.82,36.63,12.62,55.15,17.2,25.54,6.21,49.96,7.43,76.11,6.51,63.4,2.34,123.23-19.13,179.5-46.3,41.11-19.74,81.3-39.38,119.46-64.72,6.61-4.38,13.13-8.95,19.64-13.53,58.51-41.92,110.71-92.29,155.08-148.97,47.01-60.24,85.17-127.1,115.29-197.21,13.23-30.8,24.94-62.31,35.26-94.21,144.67-3.92,374.28-323.38,241.73-472.21Z"/><path class="cls-5" d="m3535.57,3872.75c.88-7.63,1.65-15.16,2.31-22.49,14.18-157.83-21.99-263.15-60.14-328.07-9.45-15.98-19.02-29.51-27.93-40.7-24.96-31.44-45.19-45.18-45.19-45.18l-233.1-116.61-43.98-22.08-6.6-3.26-208.25-104.3-43.98-21.98-150.53-75.3v-.1l-14.95-7.43-.66-.31-244.2-122.21-1.98,3.36-154.37,255.21-45.19,74.69-49.48,81.81-1.54,2.54c3.41,20.05,4.62,40.09,4.07,59.93-.44,13.84-1.65,27.68-3.74,41.21-.44,2.95-.88,5.9-1.43,8.85-1.87,10.79-4.18,21.37-6.93,31.85-.77,3.26-.22,7.12-2.53,9.57-1.21,1.32-2.53,2.54-3.74,3.87-59.59,61.46-135.79,147.04-135.79,147.04l-22.65,115.9-10.12,51.69-2.97,15.16-10.99,88.15h-51.79l4.39-71.77-5.72-31.55-1.65-9.16-8.36-57.7-17.48-121.5s-28.92-23.51-127.77-134.01c-1.65-1.83-3.3-3.77-5.06-5.7-2.2-2.44-1.76-6.11-2.53-9.16-2.75-10.48-5.17-20.96-7.15-31.55-.55-3.05-1.1-6.11-1.54-9.16-4.18-25.34-5.83-51.08-4.4-76.93.66-10.38,1.76-20.86,3.41-31.24l-.77-1.32-227.71-402.45-8.03.81-72.24,36.12-123.37,61.77-24.3,12.11-3.74,1.93-11.99,6-.22.1-40.13,20.05-294.67,147.55-43.98,21.98-.44.2-208.25,104.3-21.99,10.99-21.99,10.99-80.93,40.5s-20.56,13.94-45.63,45.69c-8.91,11.3-18.36,24.83-27.71,40.7-38.04,65.02-74.11,170.34-59.81,328.07.55,7.22,1.32,14.65,2.2,22.08l-.66,18.62-3.41,102.57h3076.01l-3.41-102.57-.66-18.22Z"/><path class="cls-3" d="m1983.11,3993.54h-59.66c0-17.4-.09-31.14-.19-33.99-.09-2.44-.09-5.19-.19-8.24-.28-14.96-.75-36.12-1.41-60.34-.19-6.21-.47-12.62-.66-19.13-.28-7.02-.47-14.25-.85-21.57-1.04-26.76-2.35-54.85-4.05-81-.19-3.05-.38-6.11-.57-9.16-.28-4.68-.66-9.36-.94-13.84-.47-6.11-.94-12.01-1.41-17.71-.37-3.16-.66-6.21-.94-9.16-2.26-22.39-4.89-40.4-8.09-50.67-12.23-39.29-52.85-73.48-81.57-100.69-42.81-40.55-88.95-77.96-135.94-113.54-15.94-12.07-32.39-24.22-43.55-40.81-14.92-22.18-18.79-50.11-17.83-76.82,1.39-38.81,9.26-76.06,16.27-113.94.09-.51.28-.92.38-1.43,1.98-7.43,3.86-13.84,5.36-18.82,2.35-7.63,3.86-12.01,3.86-12.01-2.45.2-5.55,1.93-9.22,4.88-6.4,4.99-14.59,13.64-24,24.73-6.4,7.53-13.36,16.28-20.61,25.75-.47.51-.85,1.02-1.22,1.53-.09.2-.28.31-.37.51-4.24,5.6-8.66,11.5-12.99,17.5-1.79,2.24-3.39,4.48-5.08,6.82-17.97,24.63-36.89,52.2-54.48,78.25-2.07,3.05-4.14,6.11-6.12,9.16-7.34,10.99-14.3,21.57-20.89,31.54-2.07,3.15-4.05,6.21-5.93,9.16-6.21,9.46-11.76,18.01-16.75,25.64-3.67,5.7-6.87,10.79-9.6,15.06-.47.71-.85,1.42-1.22,2.03-4.7,7.33-7.9,12.21-9.03,14.15-.47.61-.66.91-.66.91l-.19-2.03-2.92-32.26-2.16-23.51-.85-9.16-2.82-31.54-.75-8.04-.09-1.12-.28-2.54-13.93-76.32s-6.4-35.01-6.4-35.11c0,0-57.17-174.94-58.79-183.84-3.97-21.94,96.18-100.85,113.57-131.69,15.96-28.3,36.79-60.07,66.17-76.05,33.33-18.13,74.56-15.31,107.75-34.8-80.5,47.27,29.67,184.83,55.35,236.55,27.08,54.55,51.43,110.7,69.02,169.08,17.59,58.38,18.05,117.16,31.13,175.43.66,3.05,1.41,6.11,2.16,9.16,35.38,146.12,127.31,264.78,127.31,264.78l8.47,54.14,1.41,9.16,4.89,31.55,1.41,9.16,16,102.57,3.01,19.13,2.45,15.77,7.15,45.79,1.41,9.26.09,4.89.57,26.86Z"/><path class="cls-3" d="m2642.42,3054.84l-73.09,189.05-22.11,115.9-.66,6.31-.28,2.54-.1,1.12-3.01,30.73-.94,9.56-6.4,66.04-.19,2.04s-19.57-29-46.95-68.08c-2.26-3.15-4.52-6.31-6.77-9.56-7.25-10.18-14.77-20.86-22.58-31.85-2.16-2.95-4.23-5.9-6.4-8.85-15.43-21.17-31.43-42.94-47.14-63.19-.09-.2-.28-.31-.38-.51-1.79-2.34-3.48-4.78-5.36-7.02-8.85-11.4-17.41-22.18-25.6-31.95-.09-.1-.28-.3-.37-.41-1.98-2.44-3.95-4.68-5.93-7.02-.09-.1-.19-.3-.38-.41-3.86-4.78-7.71-9.06-11.48-13.13-16.18-17.91-29.08-29.41-36.13-30.12,0,0,24.75,66.24,27.57,133,.38,6.92.38,13.84.19,20.76-.09,2.95-.28,5.9-.47,8.85-.38,5.29-.85,10.58-1.6,15.67-.85,5.5-1.88,10.89-3.29,16.18-.09.41-.19.92-.38,1.32-.66,2.85-1.6,5.49-2.45,8.24-4.99,14.96-12.42,28.39-23.34,39.38-.28.31-.66.71-1.03,1.02-3.77,3.56-8,7.02-12.61,9.97-9.79,6.41-20.23,13.43-31.05,21.06-17.69,12.31-36.51,26.15-55.52,40.7-30.39,23.2-61.16,48.34-88.08,72.66-42.34,38.16-75.37,74.18-82.99,97.28-2.63,8.04-4.99,20.66-7.06,36.43-.66,4.78-1.22,9.87-1.79,15.16-.85,7.94-1.6,16.38-2.35,25.24v.31c-.47,5.09-.85,10.38-1.22,15.77-1.6,20.76-2.82,43.15-3.86,65.23-.19,5.29-.47,10.48-.66,15.67-.09,1.93-.19,3.97-.28,5.9-1.5,33.58-2.45,65.43-2.92,89.14-.19,6.92-.38,13.13-.47,18.52,0,2.54-.28,7.53-.57,14.04h-63.61l1.22-12.72,1.22-7.22s2.07-12.42,2.07-12.52l9.03-54.34,2.64-15.77,3.2-19.13,14.4-86.8,2.63-15.77,4.23-25.54,2.54-15.16,6.68-39.89s104.17-125.77,140.77-278.62c.75-3.15,1.51-6.31,2.16-9.56,9-44.64,7.92-89.95,19.68-134.67,13.46-51.16,34.01-100.26,57.38-147.62,40.71-82.52,90.08-160.64,128.35-244.32,4.98-10.9,9.86-22.27,9.93-34.25.07-11.98-5.89-24.8-17.02-29.21,18.72,7.41,36.86,19.59,54.6,29.17,49.87,26.95,84.54,62.02,112.8,111.26,14.34,24.98,123.55,85.31,123.55,103.98Z"/></svg>