<?xml version="1.0" encoding="UTF-8"?><svg id="Layer_1" xmlns="http://www.w3.org/2000/svg" xmlns:xlink="http://www.w3.org/1999/xlink" viewBox="0 0 1175 356"><defs><style>.cls-1{fill:url(#linear-gradient);}.cls-2{fill:#fff;}</style><linearGradient id="linear-gradient" x1="204.75" y1="560.75" x2="970.25" y2="-204.75" gradientUnits="userSpaceOnUse"><stop offset="0" stop-color="#662d75"/><stop offset="0" stop-color="#672d74"/><stop offset=".2" stop-color="#893473"/><stop offset=".39" stop-color="#a33a71"/><stop offset=".58" stop-color="#b63e70"/><stop offset=".79" stop-color="#c24170"/><stop offset="1" stop-color="#c64270"/></linearGradient></defs><rect class="cls-1" width="1175" height="356"/><path class="cls-2" d="m275.38,184.7c-3.7,0-7.15,1.1-10.03,2.98h0c-8.76.81-23.11-2.05-40.18-6.28,29.25-17.07,43.78-30.19,53.66-35.77l-.04-.09c.58.06,1.17.09,1.76.09,10.15,0,18.38-8.23,18.38-18.38s-8.23-18.38-18.38-18.38c-6.32,0-11.89,3.19-15.2,8.04h0c-59.73-11.2-90.22-34.76-124.41-59.75h0c.38-1.47.58-3.01.58-4.6,0-10.15-8.23-18.38-18.38-18.38s-18.38,8.23-18.38,18.38c0,6.2,3.08,11.68,7.78,15.01h0c4.24,46.12,16.37,73.52,25.65,90.47-23.24-7.43-44.57-15.94-62.73-24.68l-.08.18c-.88-9.33-8.74-16.64-18.3-16.64-10.15,0-18.38,8.23-18.38,18.38s8.23,18.38,18.38,18.38c3.74,0,7.21-1.12,10.11-3.03,25.09,9.08,40.71,15.4,82.4,26.93,3.15,4.91,7.4,10.97,12.11,17.58-2.15.92-4.35,1.84-6.59,2.76-21.7,8.9-47.19,17.6-72.42,22.12h0c-3.2-2.69-7.32-4.31-11.82-4.31-10.15,0-18.38,8.23-18.38,18.38s8.23,18.38,18.38,18.38c6.12,0,11.54-2.99,14.88-7.59h0c5.51-6.48,5.51-8.21,14.98-10.79,4.73-1.29,35.61-10.56,70.5-25.62,8.27,11.61,16.66,23.64,22.29,33.38,12.64,21.83,20.44,34.92,26.3,53.37-1.92,2.9-3.04,6.38-3.04,10.12,0,10.15,8.23,18.38,18.38,18.38s18.38-8.23,18.38-18.38c0-9.08-6.58-16.62-15.23-18.11-4.85-6.07-11.88-22.27-24.69-43.65-5.64-9.41-16.75-24.41-28.68-41.25,1.71-.79,3.41-1.6,5.12-2.41,5.42-2.59,10.5-5.14,15.29-7.62,36.13,9.41,42.34,11.16,52.33,15.77h0c2.17,7.73,9.27,13.4,17.69,13.4,10.15,0,18.38-8.23,18.38-18.38s-8.23-18.38-18.38-18.38Zm-124.96-36.48c-17.33-33.48-17.48-60.04-15.86-73.44,0,0,33.67,24.03,58.95,36.09,14.96,7.14,50.18,19.36,65.04,24.42h0c-9.65,10.63-33.44,28.44-49.52,37.06-1.66.89-3.74,2-6.19,3.28-9.17-2.42-18.71-4.94-28.28-7.3-5.04-1.24-10.02-2.55-14.95-3.9-3.36-5.53-6.47-10.97-9.18-16.2Zm25.2,40.77c-1.23-1.79-2.45-3.59-3.67-5.39,1.39.36,2.79.73,4.22,1.11,1.9.5,3.74.98,5.54,1.44-1.96.93-3.99,1.88-6.09,2.84Z"/><path class="cls-2" d="m438.91,189.91c-2.26-4.37-5.69-7.95-10.28-10.74-4.6-2.79-9.83-4.18-15.71-4.18-2.71,0-5.42.3-8.14.9-2.71.6-5.12,1.58-7.23,2.94-2.11,1.36-3.81,3.09-5.08,5.2-1.28,2.11-1.92,4.6-1.92,7.46,0,4.97,2.03,8.78,6.1,11.41,4.07,2.64,10.47,4.86,19.21,6.67,12.5,2.56,21.73,6.29,27.69,11.19,5.95,4.9,8.93,11.49,8.93,19.78,0,6.03-1.17,11.11-3.5,15.25-2.34,4.15-5.39,7.54-9.15,10.17-3.77,2.64-8.02,4.52-12.77,5.65-4.75,1.13-9.53,1.7-14.35,1.7-7.99,0-15.75-1.66-23.28-4.97-7.54-3.31-13.71-8.51-18.53-15.59l12.2-9.04c2.71,4.67,6.7,8.59,11.98,11.75,5.27,3.16,11.07,4.75,17.4,4.75,3.31,0,6.48-.3,9.49-.9,3.01-.6,5.65-1.66,7.91-3.16,2.26-1.5,4.07-3.43,5.42-5.76,1.36-2.33,2.03-5.23,2.03-8.7,0-5.57-2.68-9.75-8.02-12.54-5.35-2.79-13.07-5.39-23.17-7.8-3.16-.75-6.52-1.7-10.06-2.83-3.54-1.13-6.82-2.79-9.83-4.97-3.02-2.18-5.5-4.93-7.46-8.25-1.96-3.31-2.94-7.46-2.94-12.43,0-5.42,1.05-10.06,3.16-13.9,2.11-3.84,4.93-7.01,8.48-9.49,3.54-2.49,7.57-4.33,12.09-5.54,4.52-1.2,9.19-1.81,14.01-1.81,7.38,0,14.54,1.66,21.47,4.97,6.93,3.32,12.13,7.99,15.59,14.01l-11.75,8.81Z"/><path class="cls-2" d="m530.67,177.71h-29.83v61.7c0,3.92.37,7.16,1.13,9.72.75,2.56,1.84,4.56,3.28,5.99,1.43,1.43,3.13,2.41,5.08,2.94,1.96.53,4.07.79,6.33.79,2.11,0,4.33-.3,6.67-.9,2.33-.6,4.56-1.43,6.67-2.49l.68,13.33c-2.71,1.06-5.54,1.84-8.48,2.37-2.94.53-6.14.79-9.6.79-2.86,0-5.88-.38-9.04-1.13-3.16-.75-6.1-2.18-8.81-4.29-2.71-2.11-4.94-4.97-6.67-8.59-1.73-3.62-2.6-8.36-2.6-14.24v-65.99h-21.92v-12.88h21.92v-29.83h15.37v29.83h29.83v12.88Z"/><path class="cls-2" d="m554.39,177.03c-.15-4.52-.38-8.59-.68-12.2h14.69c.3,2.86.53,6.03.68,9.49.15,3.47.23,6.33.23,8.59h.45c3.01-6.18,7.53-11.19,13.56-15.03,6.02-3.84,12.8-5.76,20.34-5.76,1.96,0,3.73.08,5.31.23,1.58.15,3.2.45,4.86.9l-2.03,14.69c-.9-.3-2.41-.6-4.52-.9-2.11-.3-4.22-.45-6.33-.45-4.07,0-7.99.75-11.75,2.26-3.77,1.5-7.04,3.87-9.83,7.1-2.79,3.23-5.05,7.36-6.78,12.4-1.73,5.04-2.6,11.09-2.6,18.15v54.11h-15.37v-82.49c0-2.86-.08-6.55-.23-11.07Z"/><path class="cls-2" d="m699.94,202.14c0-9.12-2.41-15.93-7.23-20.41-4.82-4.49-11.83-6.73-21.02-6.73-6.33,0-12.2,1.13-17.63,3.39s-10.02,5.28-13.79,9.04l-8.59-10.17c4.37-4.37,10.13-7.98,17.29-10.85,7.15-2.86,15.25-4.29,24.29-4.29,5.72,0,11.07.79,16.05,2.37,4.97,1.58,9.34,3.96,13.11,7.12,3.76,3.16,6.7,7.16,8.81,11.98,2.11,4.82,3.16,10.47,3.16,16.95v46.33c0,4.07.15,8.29.45,12.66.3,4.37.75,8.06,1.36,11.07h-13.79c-.45-2.56-.83-5.35-1.13-8.36-.3-3.01-.45-5.95-.45-8.81h-.45c-4.82,7.08-10.28,12.17-16.38,15.25-6.1,3.09-13.45,4.63-22.04,4.63-4.07,0-8.25-.57-12.54-1.7-4.29-1.13-8.21-2.98-11.75-5.55-3.54-2.57-6.48-5.9-8.81-9.98-2.34-4.08-3.5-9.07-3.5-14.97,0-8.16,2.07-14.63,6.21-19.39,4.14-4.76,9.68-8.31,16.61-10.66,6.93-2.34,14.88-3.86,23.84-4.54,8.96-.68,18.27-1.02,27.91-1.02v-3.37Zm-4.52,15.57c-6.33,0-12.7.26-19.1.79-6.41.53-12.2,1.58-17.4,3.16s-9.46,3.88-12.77,6.89c-3.32,3.02-4.97,7.01-4.97,11.98,0,3.77.71,6.93,2.15,9.49,1.43,2.56,3.35,4.63,5.76,6.22,2.41,1.58,5.08,2.71,8.02,3.39,2.94.68,5.91,1.02,8.93,1.02,5.42,0,10.24-.94,14.46-2.82,4.22-1.88,7.76-4.44,10.62-7.68,2.86-3.24,5.05-6.97,6.55-11.19,1.5-4.22,2.26-8.66,2.26-13.33v-7.91h-4.52Z"/><path class="cls-2" d="m767.73,164.82c.3,2.86.53,6.03.68,9.49.15,3.47.23,6.33.23,8.59h.45c3.01-6.18,7.91-11.19,14.69-15.03s13.93-5.76,21.47-5.76c13.41,0,23.47,3.99,30.17,11.98,6.7,7.99,10.06,18.53,10.06,31.64v64.86h-15.37v-58.53c0-5.57-.45-10.62-1.36-15.14-.9-4.52-2.45-8.4-4.63-11.64-2.19-3.24-5.12-5.76-8.81-7.57-3.69-1.81-8.33-2.71-13.9-2.71-4.07,0-8.02.83-11.87,2.49-3.84,1.66-7.27,4.18-10.28,7.57-3.02,3.39-5.42,7.68-7.23,12.88s-2.71,11.34-2.71,18.42v54.24h-15.37v-82.49c0-2.86-.08-6.55-.23-11.07-.15-4.52-.38-8.59-.68-12.2h14.69Z"/><path class="cls-2" d="m972.26,252.74c-4.52,6.78-10.4,11.9-17.63,15.37-7.23,3.46-14.69,5.2-22.37,5.2-8.29,0-15.78-1.43-22.49-4.29-6.71-2.86-12.43-6.78-17.18-11.75-4.75-4.97-8.44-10.85-11.07-17.63-2.64-6.78-3.96-14.09-3.96-21.92s1.32-15.14,3.96-21.92c2.63-6.78,6.33-12.66,11.07-17.63,4.75-4.97,10.47-8.89,17.18-11.75,6.7-2.86,14.2-4.29,22.49-4.29,7.68,0,15.14,1.77,22.37,5.31,7.23,3.54,13.11,8.78,17.63,15.71h.45v-83.39h15.37v170.86h-15.37v-17.85h-.45Zm-78.42-35.03c0,5.88.9,11.41,2.71,16.61,1.81,5.2,4.41,9.72,7.8,13.56,3.39,3.84,7.57,6.86,12.54,9.04,4.97,2.19,10.62,3.28,16.95,3.28,5.88,0,11.3-1.09,16.27-3.28,4.97-2.18,9.27-5.16,12.88-8.93,3.62-3.76,6.44-8.25,8.47-13.45,2.03-5.2,3.05-10.81,3.05-16.84s-1.02-11.64-3.05-16.84c-2.03-5.2-4.86-9.72-8.47-13.56s-7.91-6.85-12.88-9.04c-4.97-2.18-10.4-3.28-16.27-3.28-6.33,0-11.98,1.13-16.95,3.39-4.97,2.26-9.15,5.31-12.54,9.15-3.39,3.84-5.99,8.36-7.8,13.56-1.81,5.2-2.71,10.74-2.71,16.61Z"/><path class="cls-2" d="m1085.49,189.91c-2.26-4.37-5.69-7.95-10.28-10.74-4.6-2.79-9.83-4.18-15.71-4.18-2.71,0-5.42.3-8.14.9-2.71.6-5.12,1.58-7.23,2.94-2.11,1.36-3.81,3.09-5.08,5.2-1.28,2.11-1.92,4.6-1.92,7.46,0,4.97,2.03,8.78,6.1,11.41,4.07,2.64,10.47,4.86,19.21,6.67,12.5,2.56,21.73,6.29,27.69,11.19,5.95,4.9,8.93,11.49,8.93,19.78,0,6.03-1.17,11.11-3.5,15.25-2.34,4.15-5.39,7.54-9.15,10.17-3.77,2.64-8.02,4.52-12.77,5.65-4.75,1.13-9.53,1.7-14.35,1.7-7.99,0-15.75-1.66-23.28-4.97-7.54-3.31-13.71-8.51-18.53-15.59l12.2-9.04c2.71,4.67,6.7,8.59,11.98,11.75,5.27,3.16,11.07,4.75,17.4,4.75,3.31,0,6.48-.3,9.49-.9,3.01-.6,5.65-1.66,7.91-3.16,2.26-1.5,4.07-3.43,5.42-5.76,1.36-2.33,2.03-5.23,2.03-8.7,0-5.57-2.68-9.75-8.02-12.54-5.35-2.79-13.07-5.39-23.17-7.8-3.16-.75-6.52-1.7-10.06-2.83-3.54-1.13-6.82-2.79-9.83-4.97-3.02-2.18-5.5-4.93-7.46-8.25-1.96-3.31-2.94-7.46-2.94-12.43,0-5.42,1.05-10.06,3.16-13.9,2.11-3.84,4.93-7.01,8.48-9.49,3.54-2.49,7.57-4.33,12.09-5.54,4.52-1.2,9.19-1.81,14.01-1.81,7.38,0,14.54,1.66,21.47,4.97,6.93,3.32,12.13,7.99,15.59,14.01l-11.75,8.81Z"/></svg>