<?xml version="1.0" encoding="UTF-8"?><svg id="Layer_1" xmlns="http://www.w3.org/2000/svg" xmlns:xlink="http://www.w3.org/1999/xlink" viewBox="0 0 703.73 117.06"><defs><style>.cls-1{fill:url(#linear-gradient);}.cls-2{fill:#1f2937;}.cls-3{fill:#fff;stroke:#1f2937;stroke-miterlimit:10;stroke-width:2px;}</style><linearGradient id="linear-gradient" x1="23.93" y1="-16.11" x2="404.19" y2="122.29" gradientUnits="userSpaceOnUse"><stop offset="0" stop-color="#662d75"/><stop offset="0" stop-color="#672d74"/><stop offset=".2" stop-color="#893473"/><stop offset=".39" stop-color="#a33a71"/><stop offset=".58" stop-color="#b63e70"/><stop offset=".79" stop-color="#c24170"/><stop offset="1" stop-color="#c64270"/></linearGradient></defs><path class="cls-2" d="m586.11,108.06c-1.55.59-3.14,1.03-4.76,1.31-1.63.28-3.31.43-5.03.43-5.42,0-9.59-1.47-12.51-4.4-2.92-2.94-4.39-7.22-4.39-12.87,0-2.71.42-5.17,1.26-7.37.84-2.21,2.03-4.1,3.55-5.67,1.53-1.57,3.35-2.78,5.46-3.64,2.12-.85,4.45-1.28,7-1.28,1.77,0,3.44.13,4.98.38,1.55.25,3.03.66,4.44,1.23v5.67c-1.48-.77-2.99-1.34-4.52-1.69-1.54-.35-3.12-.53-4.76-.53-1.52,0-2.96.29-4.32.87-1.35.58-2.54,1.42-3.57,2.51-1.02,1.09-1.83,2.42-2.42,3.99-.59,1.57-.89,3.34-.89,5.32,0,4.14,1.01,7.24,3.02,9.3,2.01,2.06,4.81,3.09,8.38,3.09,1.61,0,3.18-.18,4.69-.55,1.51-.36,2.98-.91,4.39-1.64v5.53Z"/><path class="cls-2" d="m625.53,108.85c-1.34.34-2.73.59-4.16.73-1.43.15-2.89.22-4.37.22-4.3,0-7.51-.97-9.62-2.92-2.12-1.95-3.18-4.93-3.18-8.96v-17.89h-9.59v-4.98h9.59v-9.42l5.94-1.54v10.96h15.39v4.98h-15.39v17.41c0,2.46.65,4.3,1.96,5.51,1.31,1.22,3.24,1.83,5.79,1.83,1.09,0,2.29-.09,3.58-.26,1.3-.17,2.65-.44,4.06-.8v5.12Z"/><path class="cls-2" d="m663.9,109.33h-5.33l-.2-5.53c-1.02,1.18-2,2.17-2.92,2.95-.92.78-1.84,1.42-2.75,1.89-.91.48-1.83.81-2.75,1.01-.92.19-1.89.29-2.92.29-3.53,0-6.19-1.04-7.99-3.11-1.8-2.07-2.7-5.2-2.7-9.39v-22.39h5.94v21.91c0,5.26,1.98,7.89,5.94,7.89.73,0,1.44-.11,2.13-.33.69-.22,1.42-.59,2.18-1.13.76-.53,1.58-1.26,2.46-2.17.88-.91,1.86-2.06,2.95-3.45v-22.73h5.94v34.27Z"/><path class="cls-2" d="m703.73,90.38c0,.84-.01,1.55-.03,2.12-.02.57-.06,1.1-.1,1.6h-24.06c0,3.5.98,6.19,2.94,8.07,1.96,1.88,4.78,2.82,8.47,2.82,1,0,2-.04,3-.12,1-.08,1.97-.19,2.9-.32.93-.14,1.83-.29,2.68-.46.85-.17,1.64-.36,2.37-.56v4.88c-1.62.45-3.44.83-5.48,1.11-2.04.28-4.15.43-6.33.43-2.94,0-5.46-.4-7.58-1.2-2.12-.8-3.85-1.95-5.21-3.46-1.35-1.51-2.35-3.37-3-5.56-.65-2.2-.97-4.68-.97-7.46,0-2.41.35-4.69,1.04-6.84.69-2.15,1.71-4.04,3.04-5.67,1.33-1.63,2.96-2.92,4.9-3.87,1.93-.96,4.13-1.43,6.59-1.43s4.51.38,6.35,1.13c1.84.75,3.4,1.82,4.66,3.19,1.26,1.38,2.22,3.05,2.87,5.02.65,1.97.97,4.17.97,6.61Zm-6.18-.85c.07-1.52-.08-2.92-.44-4.18-.36-1.26-.93-2.35-1.69-3.26-.76-.91-1.71-1.62-2.85-2.13-1.14-.51-2.46-.77-3.96-.77-1.3,0-2.48.25-3.55.75-1.07.5-1.99,1.21-2.77,2.12-.77.91-1.4,2-1.88,3.28-.48,1.27-.77,2.67-.89,4.2h18.02Z"/><path class="cls-2" d="m510.1,116.97c-.54,0-1.08-.09-1.61-.28-12.81-4.6-21.42-16.84-21.42-30.46s8.72-26.02,21.7-30.55c2.48-.87,5.2.44,6.07,2.93.87,2.48-.44,5.2-2.93,6.07-9.16,3.2-15.31,11.86-15.31,21.56s6.07,18.24,15.11,21.49c2.48.89,3.76,3.62,2.87,6.09-.7,1.94-2.53,3.16-4.48,3.16Z"/><path class="cls-2" d="m528.52,117.06c-1.97,0-3.81-1.23-4.5-3.2-.87-2.48.44-5.2,2.93-6.07,9.16-3.19,15.31-11.86,15.31-21.56s-6.23-18.48-15.51-21.62c-2.49-.84-3.83-3.55-2.99-6.04.84-2.49,3.55-3.83,6.04-2.99,13.15,4.45,21.98,16.77,21.98,30.65s-8.72,26.03-21.7,30.55c-.52.18-1.05.27-1.57.27Z"/><path class="cls-2" d="m557.42,57.39c-.07-.22-.12-.42-.15-.59-.03-.17-.06-.33-.08-.48-.02-.15-.03-.3-.05-.45-.02-.15-.03-.34-.05-.57,0-.31.04-.63.13-.98.02-.14.06-.3.13-.48.07-.18.1-.35.1-.5v-.23s-.03-.02-.09-.01c-.06,0-.09,0-.09-.01-.09-.24-.12-.44-.09-.6.03-.16.02-.38-.01-.66-.05-.26-.06-.57-.04-.93.03-.36.02-.67-.01-.93-.05-.62-.08-1.24-.08-1.88-.02-.5-.03-.99-.05-1.49-.02-.5-.03-.99-.03-1.49.03-1.46.02-2.9-.05-4.32-.07-1.42-.09-2.86-.05-4.32,0-.12,0-.28.01-.49,0-.21.02-.41.03-.62,0-.21.01-.39.01-.54v-.26l.18-.9c.07,0,.15-.04.24-.12.09-.08.2-.16.31-.26.11-.09.23-.18.36-.24.13-.07.26-.1.4-.1h.05c.07.03.18.07.35.12.16.04.32.09.48.14.15.05.29.09.41.13.12.03.18.06.18.08l-.03,1.41.39.15c-.03.05-.06.09-.08.13-.02.03-.03.06-.05.09-.02.03-.03.05-.03.06l-.15.15c0,.14.03.22.08.26.05.03.12.05.21.05.15.02.29-.06.4-.24.11-.18.2-.35.27-.5l.05,1.08.1,1.03s.03.07.09.1c.06.03.12.07.17.1h.13s.09-.07.17-.1.12-.07.12-.1h.03l.03-.03-.05-.05s-.09-.09-.15-.18c-.07-.09-.11-.14-.13-.15v-.08c0-.1,0-.19.01-.26,0-.07.01-.15.01-.23s0-.21.01-.36c0-.15.02-.37.04-.64l.46-.23c0-.14.03-.22.08-.26.05-.03.11-.06.18-.08.07-.02.15-.04.23-.06.09-.03.15-.1.21-.22.12.03.21.11.26.22.05.11.08.24.09.39,0,.15,0,.29-.01.44-.02.15-.03.26-.05.35.14,0,.27-.07.4-.22.13-.15.2-.28.22-.4l.44-1.67c.15.02.3.06.45.12.15.06.3.09.48.09.09,0,.15-.02.18-.05.03-.03.06-.07.09-.12.03-.04.06-.08.09-.1.03-.03.09-.04.18-.04.22,0,.32.06.3.17-.03.11-.04.24-.04.4.17,0,.29-.04.35-.13.06-.09.17-.13.32-.13.31,0,.55.08.72.24.17.16.32.36.45.59.13.23.26.47.39.72.13.25.3.46.53.63,0,.03-.03.12-.08.24-.05.13-.08.21-.08.24,0,.07,0,.19.03.36.02.17.04.36.06.57.03.21.05.4.08.59.03.19.04.32.04.39l-.62.26c.03.09.09.14.17.17.08.03.15.05.22.08.07.03.13.06.18.09.05.03.08.1.08.21s-.06.18-.19.23c-.13.05-.27.09-.41.12-.15.03-.29.04-.42.04h-.26s-.04.09-.08.17-.05.14-.05.19l.05.05s.04.03.08.03c.02,0,.07-.01.15-.04.09-.03.14-.04.15-.04.02-.03.05-.06.09-.06.04,0,.07-.01.09-.01-.05.19-.09.36-.12.51-.03.15-.06.29-.09.41-.03.12-.09.21-.18.27-.09.06-.21.1-.36.12.07-.17.02-.35-.15-.54-.17-.19-.33-.28-.46-.28l-.13.05s-.09.09-.18.17c-.09.08-.13.14-.13.19-.03.09-.03.15.03.18.05.03.12.06.19.08s.15.03.23.04c.08,0,.13.04.17.09,0,.03,0,.14-.01.32,0,.18,0,.28.01.3-.02.03-.02.06-.01.08,0,.02.01.04.01.08v.23s0,.03.03.03c0,.03-.07.14-.21.31-.14.17-.29.35-.46.54-.17.19-.33.36-.49.53-.15.16-.25.25-.28.27-.05.02-.11.03-.18.05-.14.03-.21.05-.23.05-.05.05-.1.13-.14.24-.04.11-.09.22-.15.33-.06.11-.13.21-.22.28-.09.08-.19.1-.31.06-.02,0-.06-.05-.14-.15-.08-.1-.13-.15-.17-.15s-.1.02-.21.05-.17.05-.21.05h-.03s-.03,0-.03.03.02.05.06.1c.04.05.07.08.09.08.05.27.01.46-.12.55-.13.09-.32.13-.58.12-.03,0-.09-.03-.17-.08-.08-.05-.12-.09-.14-.1,0,.03,0,.1.01.19,0,.09,0,.18,0,.27,0,.09-.03.16-.06.23-.03.07-.09.1-.15.1-.09,0-.15-.03-.21-.08-.05-.05-.09-.11-.13-.18s-.08-.13-.13-.19c-.05-.06-.13-.09-.23-.09-.15,0-.25.03-.3.08-.04.05-.07.11-.08.18,0,.07-.03.13-.06.18-.03.05-.11.08-.23.08-.14-.02-.23-.05-.28-.1-.05-.05-.1-.11-.14-.18-.04-.07-.09-.13-.14-.18-.05-.05-.14-.08-.26-.08-.17,0-.29.07-.35.22-.06.15-.09.31-.1.49,0,.18,0,.36.03.53.03.17.04.28.04.33-.07.15-.11.21-.13.18-.02-.03-.08-.05-.18-.05,0,.03-.01.09-.04.18s.02.14.14.15c.05,0,.12-.02.21-.06.09-.04.15-.07.18-.09-.03.12-.05.21-.05.27s.01.12.04.17c.03.05.05.1.08.15.03.05.04.13.04.23v.1s-.07.07-.15.15c-.09.09-.15.13-.18.13.14.03.22.09.26.17.03.08.05.18.05.32,0,.09-.02.16-.05.23-.03.07-.12.14-.26.21.02.09.06.24.14.48s.12.37.14.42v.18c0,.19-.1.32-.31.4-.21.08-.37.13-.49.17l-.03.08s.06.12.18.27c.12.15.27.3.44.46.17.16.34.31.51.45.17.14.3.21.39.21l-.03.87c-.1,0-.22,0-.36-.01-.14,0-.27,0-.4.03-.13.03-.24.07-.33.13-.09.06-.14.16-.14.3,0,.09.06.16.17.23.11.07.24.15.37.26.14.1.26.24.36.4.1.16.15.37.15.63-.24,0-.38.04-.41.13-.03.09-.06.26-.08.51v.44s.03.09.08.22c.05.13.07.21.05.24,0,.02-.02.04-.05.08-.03.03-.07.06-.1.08-.03.02-.14.02-.31,0-.17-.02-.27-.02-.31,0-.07.05-.11.12-.12.22,0,.09-.02.18-.03.26,0,.08-.03.14-.08.19-.04.05-.12.08-.24.08-.14,0-.24-.03-.32-.08-.08-.05-.15-.1-.22-.15-.07-.05-.15-.09-.24-.13-.09-.03-.24-.03-.42.03Zm.21-16.69s-.05,0-.05.08.02.1.05.1c.05-.02.08-.05.08-.1s-.03-.08-.08-.08Zm.49,6.64s.02.09.05.15l.08.15s.05-.03.1-.08l.08-.08c0-.05-.02-.13-.05-.24-.03-.11-.07-.18-.1-.22l-.08.08-.05.05s-.03.03-.03.05v.13Zm.23-2.75v-.15h-.15l.15.15Zm.08,3.52c-.09,0-.13.05-.13.14s.04.14.13.14c.07,0,.1-.05.1-.14s-.03-.14-.1-.14Zm.28.98c0,.19.1.28.31.28v-.75c-.14,0-.22.06-.26.17-.03.11-.05.21-.05.3Zm.26.82c-.09,0-.13.05-.13.15s.04.15.13.15.13-.05.13-.15-.04-.15-.13-.15Zm.18-6.69s0,.12.03.27c.02.15.04.3.08.48s.08.32.13.45c.05.13.11.19.18.19h-.03c0-.27.03-.45.1-.53.07-.08.14-.12.22-.13.08,0,.15-.01.22-.01s.1-.07.1-.21c0-.05,0-.15-.01-.3,0-.15-.03-.3-.06-.45-.03-.15-.09-.29-.15-.41-.07-.12-.15-.18-.26-.18-.03.05-.06.18-.08.4-.02.21-.03.36-.03.45,0,.02-.02.04-.05.06-.03.03-.07.04-.1.04l-.28-.31v.18Zm.21,11.14c-.05,0-.08.03-.09.1,0,.07,0,.1.04.1.1-.1.12-.17.05-.21Zm0-17c-.03.24.03.44.21.59.17.15.37.23.59.23.05,0,.11,0,.17-.01.06,0,.12-.04.17-.09l.62-.13.08-.18c-.09-.02-.16-.06-.23-.12-.07-.06-.12-.12-.15-.17,0-.07-.02-.18-.05-.35-.03-.16-.07-.25-.1-.27,0-.03-.07-.04-.21-.03-.14.02-.22.02-.26,0-.03-.07-.06-.18-.09-.33s-.03-.25-.01-.28h-.18c0,.09,0,.21-.01.39,0,.17,0,.33.04.49s.09.29.18.4c.09.11.22.14.41.09,0,.03-.03.09-.08.15-.05.07-.09.11-.13.13-.12.03-.21.03-.28-.03-.07-.05-.14-.11-.21-.18-.07-.07-.14-.14-.21-.21-.07-.07-.15-.1-.26-.1Zm0,15.15c0,.14.04.26.13.36.09.1.2.15.33.15.09,0,.16-.02.23-.05.07-.03.1-.1.1-.21,0-.07-.03-.12-.1-.15-.07-.03-.15-.06-.24-.08-.09-.02-.18-.03-.27-.03h-.18Zm.87-10.55c0,.1.02.19.05.26.03.07.12.11.26.13.21,0,.42.01.66.04.23.03.45.03.64.01.2-.02.36-.07.49-.17.13-.09.19-.25.19-.48.05,0,.15-.02.31-.06s.25-.06.28-.04c.17.09.28.2.32.33.04.14.18.21.42.21l.03-1.26s.06-.06.14-.13c.08-.07.13-.12.17-.15v-.15s-.06-.03-.09.03-.06.08-.12.08l.39-.39.87.05s0-.04-.03-.06c-.02-.03-.03-.06-.03-.09-.02-.02-.05-.1-.1-.24-.05-.15-.09-.22-.13-.22.02-.09.06-.24.13-.45.07-.21.14-.44.21-.67.07-.23.13-.45.19-.64.06-.2.1-.32.12-.37.02-.05.03-.15.04-.3,0-.15.03-.23.06-.24v-.28c0-.1-.02-.19-.06-.26-.04-.07-.1-.13-.17-.19-.07-.06-.13-.12-.18-.19-.05-.07-.08-.16-.08-.28-.09,0-.18.08-.27.23-.09.15-.22.32-.37.5-.15.18-.35.33-.58.46-.23.13-.53.16-.89.09-.09.41-.28.79-.59,1.13-.31.34-.63.69-.96,1.05-.33.36-.63.75-.9,1.18-.27.43-.41.94-.42,1.54Zm.03,2.03c0,.05.03.11.08.18.05.07.1.12.15.15v-.31l-.23-.03Zm.26-.62h.21c0-.05-.01-.12-.04-.22-.03-.09-.08-.16-.17-.19v.41Zm.31-.72c0,.07.03.11.09.13.06.02.13.03.21.03s.15,0,.21-.01c.06,0,.1-.01.12-.01h.41c0-.05-.03-.09-.09-.12-.06-.03-.12-.04-.19-.05-.07,0-.13,0-.19,0-.06,0-.1.01-.12.01-.03,0-.11,0-.22.01-.11,0-.18.01-.22.01Zm1.16-5.32h.21v-.18h-.21v.18Zm.51.28c-.1,0-.16.05-.17.15,0,.1.04.15.14.15.05,0,.08-.05.09-.15,0-.1-.01-.15-.06-.15Zm.23,6.79l.1-.13h-.1v.13Zm.87-8.1c-.05-.03-.08.01-.09.14,0,.13.01.18.06.17.03-.03.06-.09.06-.18,0-.09,0-.13-.04-.13Zm1.36,5.02c-.02.22-.05.37-.09.45-.04.08.05.12.27.12.02,0,.05,0,.09.01.04,0,.07.01.09.01.03-.24.03-.4-.01-.48-.04-.08-.16-.12-.35-.12Zm.87-4.22c-.07,0-.06.07.01.21.08.14.16.21.24.21.07,0,.06-.07-.03-.21-.09-.14-.16-.21-.23-.21Zm.13.13c-.07,0-.06.07.03.22.09.15.16.22.23.22.09,0,.09-.07,0-.22-.09-.15-.17-.22-.26-.22Zm.67-2.86c-.07.03-.11.1-.13.19-.02.09-.03.18-.03.24l.36.03c0-.07,0-.15-.03-.26-.02-.1-.08-.17-.18-.21Zm.15,4.66c.17,0,.29-.03.36-.1-.02-.03-.05-.08-.09-.13-.04-.05-.07-.08-.09-.08h-.15l-.03.31Zm.28-2.34h.13l-.13-.15v.15Zm.18-1.52c-.07,0-.11.04-.12.13,0,.09.02.13.09.13.09,0,.13-.04.14-.13,0-.09-.03-.13-.12-.13Zm-.1,2.93h.13v-.28h-.13v.28Z"/><path class="cls-2" d="m576.43,44.71s-.1,0-.19.01c-.09,0-.16.01-.19.01,0,.02-.02.04-.05.08-.03.03-.06.05-.08.05h-.57l-.1.23c0-.27-.13-.45-.4-.51-.27-.07-.5-.1-.71-.1-.07,0-.13,0-.19.01-.06,0-.12.05-.19.12v-.77l-.05-.05s-.05-.06-.05-.08c-.03,0-.09-.02-.18-.06-.09-.04-.18-.09-.28-.14s-.2-.1-.28-.15c-.09-.05-.14-.09-.15-.1-.12-.05-.18-.14-.18-.27s-.06-.23-.18-.3c-.09.02-.13.06-.13.13s0,.15.03.23c.02.09.02.16.01.23,0,.07-.06.1-.14.1-.05,0-.16-.03-.33-.08-.17-.05-.26-.12-.26-.21v-.05c.03-.07.09-.11.15-.13-.03-.03-.09-.08-.17-.14-.08-.06-.14-.09-.19-.09-.1,0-.17.03-.19.08s-.04.1-.05.15c0,.05-.02.1-.04.15-.02.05-.05.08-.1.08-.07,0-.14-.02-.22-.05s-.13-.09-.17-.18c.09-.02.13-.07.13-.15v-.18c0-.22-.07-.41-.21-.57-.14-.15-.27-.31-.41-.46-.02,0-.03,0-.03-.03-.02-.02-.03-.04-.03-.08.19,0,.32-.08.39-.24.07-.16.12-.32.15-.48v-1.34c0-.17.04-.33.12-.46.08-.14.12-.28.12-.44,0-.02,0-.03-.01-.04,0,0-.01-.02-.01-.04v-.05s-.03-.07-.1-.17c-.07-.09-.1-.15-.1-.17l-.03-.03v-.05l.03-.03c.07-.14.14-.31.21-.53.07-.21.15-.39.26-.53,0-.02,0-.03.03-.05,0-.02,0-.03.01-.03s.01,0,.01-.03c.22-.14.38-.3.46-.49.09-.19.17-.4.26-.64.02.07.05.11.1.12.05,0,.09.01.13.01h.1l-.28-.54,1.21-.31c0-.26.06-.43.17-.53.11-.09.24-.16.4-.19.15-.03.32-.07.49-.1.17-.03.32-.13.44-.28h1v-.36l-.13.03s-.05-.02-.1-.05c-.05-.03-.09-.06-.1-.08l.1-.1h1.13l.13-.23c-.03.26-.03.47,0,.64.03.17.08.33.13.49.05.15.1.3.14.45.04.15.06.32.06.53v.18l-.8.69-.05.03c-.09,0-.13-.04-.13-.13s-.07-.13-.21-.13c-.21,0-.32.06-.33.17-.02.11-.03.25-.03.42-.12,0-.21.02-.27.06-.06.04-.11.1-.14.17-.03.07-.07.14-.12.22s-.12.15-.22.22l-.31.08s-.07.1-.15.24c-.09.15-.15.25-.18.32-.05.1-.12.16-.21.18-.09.02-.17.03-.24.05-.08.02-.14.04-.19.06s-.08.09-.08.19.02.21.06.31c.04.1.06.22.06.36,0,.27-.04.45-.12.54s-.19.21-.35.36v.08c0,.27.02.47.06.59.04.12.1.21.17.27.07.06.15.12.23.17.09.05.16.14.23.26.05.14.1.32.15.54.05.22.15.35.31.39.27.09.55.18.84.28.28.1.57.2.86.28.43.12.9.19,1.41.21s.99.03,1.44.03c.22,0,.4-.02.54-.05.14-.03.25-.09.33-.17.09-.08.16-.18.23-.3.07-.12.15-.26.23-.41.12.19.19.27.21.26.02-.02.09-.03.23-.03,0-.09,0-.2.03-.35.02-.15.05-.29.09-.44.04-.15.11-.27.21-.37.09-.1.22-.15.37-.15,0,.14.03.22.1.24.07.03.15.04.23.04,0-.22,0-.36.03-.42.02-.06,0-.18-.08-.37h.05c.19,0,.33.04.41.13.09.09.15.18.19.28.04.1.08.2.12.28.03.09.09.13.18.13l.05-.03c.03-.19.06-.34.09-.46s.04-.27.04-.44c0-.1-.03-.18-.08-.24-.05-.06-.1-.12-.15-.17-.05-.05-.1-.11-.15-.17-.05-.06-.08-.13-.08-.22,0-.07.04-.18.13-.33.09-.15.13-.3.13-.44,0-.19-.04-.33-.13-.44-.09-.1-.21-.27-.36-.51-.05.03-.12.01-.22-.06-.09-.08-.2-.17-.31-.28-.11-.11-.23-.22-.35-.33-.12-.11-.24-.18-.36-.22-.09-.02-.24-.04-.48-.06-.23-.03-.48-.06-.73-.12s-.48-.12-.68-.19c-.2-.08-.3-.18-.3-.3v-.93s-.03-.08-.1-.13c-.07-.05-.12-.09-.15-.13l-.05.05s-.03.03-.05.03-.03,0-.03.03-.02.06-.05.13c-.03.07-.04.12-.03.15,0,.02.03.07.1.15.07.09.1.15.1.18,0,.02-.03.07-.08.15-.05.09-.09.15-.13.21l-.1.1c.02-.05.02-.12,0-.19-.02-.08-.07-.12-.15-.14,0,.05-.02.12-.05.22s-.08.17-.13.22c-.1-.05-.19-.18-.26-.4-.07-.21-.12-.44-.14-.68-.03-.24-.04-.47-.05-.68,0-.21-.01-.34-.01-.37.27,0,.44-.03.5-.1.06-.07.16-.23.3-.49.07.03.1.09.1.18,0,.12-.02.23-.06.32-.04.09-.06.19-.06.3,0,.07.01.13.04.18s.09.09.19.13c.12-.07.2-.16.24-.27.04-.11.11-.21.19-.3.05.09.09.15.12.19.03.04.04.09.04.13s0,.09-.01.13c0,.04-.01.11-.01.19.14,0,.23,0,.28-.01.05,0,.2-.01.44-.01,0-.12-.01-.25-.04-.39-.03-.14-.13-.21-.32-.21v-.03c.05,0,.11,0,.18-.03.05,0,.1,0,.14-.01.04,0,.08-.01.12-.01h.13s.06.11.13.28c.07.17.16.26.28.26.09,0,.14-.05.17-.15.03-.1.06-.18.09-.23l.08-.03c.14,0,.25.06.33.17.09.11.15.22.18.32l.33-.33c.14.09.23.21.28.37.05.16.15.26.28.3.12.05.29.12.5.19.21.08.43.18.64.3.21.12.4.25.57.4.16.15.24.31.24.5v1.85h.08l.72-.67c-.09-.07-.18-.19-.3-.37-.11-.18-.17-.31-.17-.4v-.08s.04-.07.06-.12c.03-.04.05-.08.06-.12l.05-.03c.05,0,.1.04.14.12.04.08.09.17.13.27.04.1.07.2.09.3.02.09.03.15.03.17s0,.03.03.03h.05c.09,0,.14-.04.15-.13.02-.09.03-.17.03-.26h.33c.07.34.14.63.22.86.08.23.12.5.12.81,0,.19,0,.34-.03.45-.02.11-.05.21-.09.3-.04.09-.1.18-.17.28-.07.1-.16.23-.28.39.05.09.12.14.22.15.09.02.14.08.14.18s-.05.16-.15.18c-.1.02-.22.04-.35.06-.13.03-.24.08-.35.17s-.15.24-.15.46c0,.07.02.11.06.13.04.02.09.03.15.04.06,0,.11.02.15.04.04.02.06.06.06.13,0,.02,0,.03-.03.05-.17.05-.3.09-.37.1-.08.02-.15.03-.21.03s-.12,0-.19-.01c-.07,0-.18-.01-.33-.01,0,.05.01.18.04.39.03.21.04.34.04.41,0,.02-.02.06-.06.12-.04.06-.06.1-.06.12-.02.02-.03.07-.05.17-.02.09-.03.16-.05.19,0-.09-.03-.2-.1-.33-.07-.14-.15-.22-.23-.26-.1-.03-.17-.02-.19.04-.03.06-.04.12-.04.19,0,.12.04.22.13.3.09.08.13.17.13.27,0,.12-.03.21-.1.28-.07.07-.15.12-.23.17-.09.04-.17.09-.24.14-.08.05-.12.13-.14.23l-.23-.46v.72s-.07,0-.1.03c-.07.03-.11.05-.13.05h-.18v-.69h-.18c0,.05-.03.14-.08.26-.05.12-.12.25-.19.39s-.16.26-.24.36c-.09.1-.17.15-.26.15-.12,0-.2-.04-.24-.13-.04-.09-.08-.2-.12-.33h-.03c-.15,0-.27.03-.33.08-.07.05-.13.11-.18.18-.05.07-.1.14-.15.22-.05.08-.12.15-.21.22h-.03c-.09,0-.14-.06-.15-.18-.02-.12-.04-.25-.06-.39-.03-.14-.07-.27-.13-.39-.06-.12-.18-.18-.35-.18,0,.07,0,.16.03.28.02.12.03.25.04.4,0,.15,0,.29-.01.42-.02.14-.06.26-.13.36-.07,0-.1-.03-.1-.1,0-.03.01-.1.04-.19.03-.09.05-.16.06-.19v-.08c-.03-.1-.08-.24-.13-.42-.05-.18-.09-.27-.13-.27h-.08s-.12.09-.3.27c-.18.18-.32.32-.42.42-.05.12-.1.21-.15.28-.1.19-.17.28-.21.28-.1,0-.17-.04-.19-.12s-.05-.16-.08-.24c-.03-.09-.08-.17-.17-.24-.09-.08-.25-.12-.49-.12Zm-5.5-7.15s-.05.02-.05.06.02.06.05.04c.03,0,.05-.01.05-.04s-.02-.05-.05-.06Zm.8-.21h.1c.12-.17.23-.35.33-.54.1-.19.15-.39.15-.59-.03,0-.09.04-.18.13-.09.09-.18.18-.27.28-.09.1-.22.24-.37.41,0,.21.08.31.23.31Zm2.03,6.02h.1l-.1-.13v.13Zm.82-8.9h.08v-.46h-.08v.46Zm.46,0h.21c0-.05-.01-.1-.04-.15s-.06-.08-.12-.08h-.05v.23Zm.54,9.7l.1-.1-.1-.1-.05-.03s-.03,0-.03.01c0,0,0,.01-.03.01h-.03l.13.21Zm1.13-.44c-.17,0-.27.07-.3.21-.03.14-.04.27-.04.41v.13c.17,0,.27-.09.3-.28s.04-.34.04-.46Zm.59-9.16l.08-.1h-.08v.1Zm.08.26s.02.05.05.1c.03.05.07.09.1.13v-.33h-.15v.1Zm.23.69h.18c0-.07-.01-.14-.04-.21-.03-.07-.07-.12-.14-.15v.36Zm0,8.64s.02.06.05.08c.03.02.05.04.05.08h.1c.22,0,.4-.09.54-.27.14-.18.21-.37.21-.58-.19,0-.39.05-.62.14-.22.09-.33.27-.33.53v.03Zm2.06.44c-.05,0-.08.04-.08.13s.03.13.08.13c.07,0,.1-.04.1-.13s-.03-.13-.1-.13Zm2.86-6.59c-.05,0-.08.04-.08.12s.03.12.08.12c.07,0,.1-.04.1-.12s-.03-.12-.1-.12Zm.13.23c-.07,0-.1.04-.1.12s.03.12.1.12c.05,0,.08-.04.08-.12s-.03-.12-.08-.12Zm.1.23s-.03.07-.05.15c-.02.09-.03.15-.05.18l-.03.18c.09,0,.15-.06.19-.17.04-.11.06-.19.06-.24,0-.07-.04-.1-.13-.1Zm-.1.9l.1-.1h-.1v.1Zm.1-1.9h.13v-.13h-.13v.13Zm.13,4.66h.36c-.03-.09-.08-.13-.13-.14-.05,0-.09-.01-.13-.01-.02,0-.03,0-.03.01s0,.01-.03.01h-.05v.13Zm.23-5.94c-.07,0-.1.03-.1.1s.03.1.1.1.1-.03.1-.1-.03-.1-.1-.1Zm0,.33c-.07,0-.1.04-.1.12s.03.12.1.12.1-.04.1-.12-.03-.12-.1-.12Zm.13,1.39h.08v-.1h-.08v.1Zm.08,4.22s-.05.03-.05.09.02.09.05.09c.07,0,.1-.03.1-.09s-.03-.09-.1-.09Zm.13-3.88c-.07,0-.1.04-.1.12s.03.12.1.12c.05,0,.08-.04.08-.12s-.03-.12-.08-.12Zm.08,1.41s0,.03.03.05c.02.03.03.06.05.08.03.03.06.05.08.05v-.13s-.03-.02-.05-.05c-.02-.03-.04-.05-.08-.05l-.03.05Zm1.05-1.31h.13v-.1h-.13v.1Z"/><path class="cls-2" d="m591.4,44.32s.04-.06.06-.12c.03-.06.04-.11.04-.14v-.13s-.01-.08-.04-.13-.05-.09-.06-.1c-.19.03-.35.13-.49.3-.14.16-.21.34-.21.53v.08s.06.1.14.21c.08.1.12.16.12.18,0,.09-.07.13-.21.14-.14,0-.22.01-.26.01s-.09,0-.17-.01c-.08,0-.12-.01-.14-.01-.07-.02-.12-.06-.14-.12s-.05-.12-.06-.19c-.02-.07-.04-.14-.06-.21-.03-.07-.07-.12-.14-.15-.26-.12-.46-.26-.6-.41-.15-.15-.27-.32-.36-.5-.09-.18-.16-.38-.21-.59-.04-.21-.09-.46-.14-.73,0-.03-.02-.06-.05-.09-.03-.03-.06-.04-.08-.04s-.04.01-.08.04-.05.06-.05.09c-.02.05-.03.16-.03.33s0,.27.03.31l-.28.15c.07-.14.04-.32-.08-.54-.12-.22-.18-.41-.18-.57,0-.17.05-.3.14-.39.09-.09.14-.22.14-.41,0-.14,0-.27-.03-.4-.02-.13-.05-.29-.1-.48-.1.14-.18.32-.24.55-.06.23-.11.41-.14.53-.1-.03-.15-.09-.15-.18v-.21c0-.15.01-.43.04-.84.03-.4.06-.82.12-1.25.05-.43.11-.83.18-1.2.07-.37.14-.6.21-.68.12-.15.21-.27.28-.35.07-.08.13-.15.19-.21.06-.06.12-.13.19-.22.07-.09.15-.22.26-.41.02-.03.03-.07.05-.1s.03-.04.05-.03l.67.23.26,1.08h.36s0,.14.01.32c0,.18.02.29.04.32.02.03.03.08.05.13,0,.03.02.07.05.1.02.02.03.03.03.05,0,.05-.02.16-.05.32s-.06.27-.08.32c-.02.03-.06.1-.14.21s-.12.16-.14.18v.82s-.04.05-.12.1-.12.09-.12.13v.41c0,.14.02.28.05.44.03.15.15.23.33.23.45,0,.83-.11,1.16-.32.33-.21.6-.48.84-.81.23-.33.43-.68.6-1.07.17-.39.33-.74.49-1.07s.3-.6.45-.81c.15-.21.32-.32.53-.32.19,0,.36.08.5.23.15.15.27.34.37.55.1.21.18.44.23.67.05.23.09.42.1.58.07-.09.13-.11.18-.08.05.03.09.09.13.15.03.07.06.17.08.31l.26-.28s.06.02.09.05c.03.03.04.06.04.08s-.02.06-.06.14c-.04.08-.06.12-.06.14v.18c0,.15.05.27.15.35.1.08.22.13.36.15.14.03.28.03.44.01.15-.02.27-.03.36-.03.05.19.15.33.31.44s.32.19.5.26c.18.07.36.12.55.17.19.04.35.1.49.17.02.02.06.06.13.13.07.07.12.11.15.13,0,.02.03,0,.1-.04.07-.04.11-.06.13-.06h.15s.06.01.14.04.16.05.24.08c.09.03.17.05.26.08.09.03.14.05.15.06h.13c.12-.05.27-.1.45-.14s.36-.09.53-.15c.17-.06.32-.14.44-.23.12-.09.18-.23.18-.4,0-.24-.05-.51-.14-.82-.09-.31-.22-.61-.37-.91-.15-.3-.33-.58-.51-.84-.19-.26-.38-.45-.57-.59-.1-.05-.24-.13-.42-.23-.18-.1-.36-.21-.54-.32-.18-.11-.33-.24-.46-.37-.13-.14-.19-.27-.19-.41,0-.02,0-.06.01-.12,0-.06.01-.1.01-.12l.28.23c.05-.27.09-.56.13-.85.03-.29.07-.58.1-.87.19-.09.33-.16.42-.23.09-.07.14-.2.14-.39,0-.02.03-.03.08-.04.05,0,.1,0,.15,0,.05,0,.09.02.12.03.03,0,.01.01-.04.01,0-.03.04-.03.12.03.08.05.12.07.14.05.19-.05.27-.04.26.03-.02.07-.03.15-.03.26,0,.03.03.07.08.12s.1.09.15.14c.05.05.09.09.13.13s.03.06-.03.08l-.13.69s0,.12.01.32c0,.2.06.33.14.4h.13c0-.22,0-.4-.03-.54-.02-.14-.03-.32-.05-.54,0-.02,0-.04.03-.08.02-.03.03-.08.05-.13.02-.05.04-.11.08-.18.03,0,.08.02.14.06.06.04.1.06.12.06s.05.03.1.09c.05.06.09.07.1.04.03.12.08.25.14.4.06.15.13.28.22.41.09.13.18.24.27.32.09.09.18.13.27.13v-.33h.15s.1.07.19.21c.09.14.16.25.19.33.02.05.05.15.09.31s.09.31.13.48c.04.16.08.32.12.48.03.15.05.26.05.31.07.14.12.2.15.18.03-.02.07-.04.1-.06.03-.03.07-.01.1.04.03.05.09.21.15.49.02.03.04.07.08.1.03.03.07.05.1.05l-.54,1.47s0,.05.08.05.15,0,.26.03.2.04.28.06c.09.03.14.06.15.12.07.19.11.38.13.57.02.19.03.38.03.57,0,.27-.09.51-.26.69-.17.19-.36.36-.57.51-.05-.03-.1-.09-.14-.15-.04-.07-.08-.15-.12-.23l-.13.13s-.01.06-.04.13-.05.14-.08.22-.05.15-.08.21c-.03.06-.05.09-.06.09-.03.03-.13.04-.28.03-.15-.02-.24-.03-.26-.03-.03.03-.06.09-.06.17,0,.08-.02.16-.04.24-.02.09-.04.16-.08.23-.03.07-.09.1-.18.1,0-.07,0-.13-.03-.19-.02-.06-.06-.1-.13-.12-.03,0-.08.03-.14.1-.06.07-.1.12-.12.15-.02.02,0,.08.04.18.04.1.07.17.09.21v.05c0,.15-.03.36-.09.62-.06.26-.17.43-.32.51,0-.02-.02-.04-.05-.06-.03-.03-.06-.05-.08-.06v-.05c0-.14.02-.27.06-.4.04-.13.06-.26.06-.4-.14,0-.2.06-.18.17.02.11-.05.21-.21.3-.14-.09-.23-.19-.27-.32-.04-.13-.12-.24-.22-.35l.13-.13c-.03-.09-.13-.1-.28-.04-.15.06-.26.09-.31.09.02-.05.04-.1.08-.15l.1-.15s.04-.09.12-.15c.08-.07.13-.1.17-.1.02,0,.06,0,.12.03.06.02.09.04.09.08v-.08c0-.14-.1-.23-.3-.27-.2-.04-.34-.06-.42-.06,0-.05-.02-.09-.05-.13l-.05-.1s-.05-.08-.1-.13c.03-.02.09-.04.15-.06.07-.03.12-.06.15-.09l-.03-.03s-.03,0-.05-.03c-.26,0-.44.09-.54.27-.1.18-.21.42-.33.71-.09-.09-.15-.1-.18-.05-.03.05-.07.12-.1.22s-.08.18-.13.27-.13.12-.23.1c-.03,0-.08-.04-.14-.12-.06-.08-.1-.12-.12-.12h-.03s-.03,0-.05-.03c-.02,0-.03,0-.03.01,0,0,0,.01-.03.01h-.03c-.09.03-.14.1-.17.21-.03.1-.05.21-.06.33-.02.12-.02.27,0,.46-.05-.21-.12-.34-.22-.41-.09-.07-.19-.12-.3-.14-.1-.03-.2-.05-.28-.06-.09-.02-.14-.07-.15-.15.03-.12.05-.22.05-.31s-.01-.16-.04-.23c-.03-.07-.07-.1-.14-.1.02.17-.06.28-.24.33-.18.05-.3.08-.37.08.03-.22.04-.42.01-.59-.03-.17-.15-.26-.37-.26-.14,0-.24.04-.3.12-.06.08-.12.18-.17.32-.07-.07-.12-.16-.15-.28s-.07-.24-.1-.36c-.03-.12-.08-.22-.14-.31-.06-.09-.14-.13-.24-.13-.12,0-.2.02-.24.05-.04.03-.1.1-.17.21l-.41-.49h-.21c0,.26-.02.43-.05.53-.03.09-.07.16-.12.19-.04.03-.08.06-.12.09-.03.03-.05.1-.05.22,0,.02.03.06.08.14s.08.12.08.14v.03c0,.14-.05.26-.14.37-.09.11-.2.21-.32.3-.12.09-.24.16-.35.22-.11.06-.19.1-.24.12,0,.02-.03.08-.1.18-.07.1-.12.17-.15.21-.02.03-.03.09-.05.15-.02.07-.03.11-.05.13-.02.02-.03.03-.05.03h-.05l-.08-.03s-.03-.08-.05-.19c-.02-.11-.03-.18-.05-.19l-.05-.03c-.09,0-.15.03-.19.1-.04.07-.07.14-.09.22-.02.08-.02.16-.01.24,0,.09.01.14.01.15-.14,0-.22-.06-.26-.17-.03-.11-.05-.23-.05-.36s-.01-.24-.04-.33c-.03-.09-.1-.13-.22-.12Zm-3.47-6.43s-.05,0-.05.04.02.06.05.06c.05,0,.08-.02.08-.05s-.03-.05-.08-.05Zm1.7,5.87c0,.07,0,.15.01.26,0,.1.06.16.14.18.02,0,.04-.02.08-.05.03-.03.05-.06.05-.08l.03-.08c0-.09-.03-.15-.1-.18-.07-.03-.14-.05-.21-.05Zm1.23-1.78c-.05.02-.12.09-.22.22-.09.13-.19.27-.3.44-.1.16-.19.32-.26.46-.07.15-.1.24-.1.3h.21l.67-1.05v-.36Zm-.28,1.93c-.1,0-.18.05-.22.14-.04.09-.06.18-.06.27h.28v-.41Zm1.16-1.05v.66c0,.28.05.51.15.68v-.9s.03-.06.08-.14c.05-.08.08-.12.08-.14,0-.09-.04-.13-.13-.14-.09,0-.15-.01-.18-.01Zm1.08-1.41l.13-.13-.13-.15-.13.15.13.13Zm.13-.67c.02-.05,0-.08-.06-.08s-.08.03-.06.08c.02.05.04.08.08.08s.05-.03.05-.08Zm.67,2.78h.13l-.13-.15v.15Zm.93-3.06s.02.09.05.15c.03.07.06.11.08.13,0,.02,0,.03.03.03h.05s.03,0,.05-.03c.05-.1.15-.25.31-.45.15-.2.23-.35.23-.45,0-.07-.01-.13-.04-.19-.03-.06-.08-.09-.17-.09-.02,0-.03,0-.03.01,0,0,0,.01-.03.01h-.03c-.12.09-.24.21-.35.37-.11.16-.17.31-.17.45v.05Zm1.83.82h.31c0-.19-.08-.28-.23-.28,0,.02,0,.03-.03.03h-.05v.26Zm1.31,2.5l.13.13c.1-.03.16-.1.18-.19.02-.09.03-.18.03-.24-.07,0-.14.02-.22.05-.08.03-.12.1-.12.21v.05Zm.13-1.6l.13-.13h-.13v.13Zm.41-1.16s.02.08.06.18c.04.1.07.17.09.21.02-.03.04-.09.06-.15.03-.07.04-.11.04-.13v-.1s-.01-.04-.04-.08c-.03-.03-.05-.06-.06-.08-.02,0-.05.02-.09.06-.04.04-.06.07-.06.09Zm0,.77c.03.09.09.18.15.28.07.1.15.18.23.23.1-.02.16-.07.17-.17,0-.09.01-.16.01-.19s0-.11-.01-.23c0-.12-.06-.18-.17-.18-.03,0-.1.03-.19.09-.09.06-.16.12-.19.17Zm0,.64h.15l-.15-.13v.13Zm1.21.28c-.07,0-.1.04-.1.13s.03.13.1.13c.05,0,.08-.04.08-.13s-.03-.13-.08-.13Zm.39-6.59s0,.06.03.09c.03.03.06.04.08.04.12,0,.24-.06.37-.18.13-.12.19-.23.19-.33,0-.24-.15-.36-.44-.36l-.23.75Zm2.16,6.92c-.14,0-.22.05-.26.15-.03.1-.06.21-.08.31h.08c.14,0,.21-.06.23-.17.02-.11.03-.21.03-.3Zm.08-1.78c-.14.07-.22.23-.26.48s-.05.43-.05.55h.31v-1.03Zm.8-4.22h.1v-.13h-.1v.13Zm1.03,4.6s.1.04.21.08c.1.03.17.05.21.05.07,0,.11-.03.12-.1,0-.07.01-.12.01-.15,0-.07-.01-.13-.04-.19-.03-.06-.08-.09-.17-.09-.02,0-.03,0-.03.01,0,0,0,.01-.03.01h-.03l-.26.26v.13Zm.51-.93h.18v-.28h-.18v.28Z"/><path class="cls-2" d="m613.67,45.35s-.06.09-.09.17c-.03.08-.04.12-.04.14,0-.07-.03-.1-.08-.1-.03,0-.12,0-.26.01-.14,0-.22,0-.26-.01-.02,0-.1-.03-.26-.08-.15-.05-.27-.09-.36-.13-.02,0-.04,0-.08-.03l-.1-.05h-.1l-.05.05s-.03.03-.05.03l-.05.03-.03-.03s0-.1-.03-.19c-.03-.09-.07-.16-.1-.19-.03-.03-.12-.07-.24-.1-.13-.03-.21-.05-.24-.05v-.23l-.41.28s-.03,0-.08-.06c-.05-.06-.09-.11-.1-.14-.03-.03-.04-.1-.01-.21.03-.1,0-.16-.09-.18-.09.03-.13.08-.13.13v.15c0,.05-.02.1-.05.14-.03.04-.12.06-.26.06-.31,0-.51-.04-.59-.13-.09-.09-.13-.19-.13-.31s0-.24.01-.35c0-.11-.05-.18-.17-.22-.03-.02-.13-.03-.28-.05-.15-.02-.27-.03-.33-.03l.13-.23c-.17-.02-.32-.07-.44-.15-.12-.09-.22-.19-.31-.32-.09-.13-.17-.27-.24-.41-.08-.15-.15-.28-.22-.4-.02-.02-.06-.08-.13-.18-.07-.1-.12-.18-.15-.23-.22-.27-.36-.51-.41-.69-.05-.19-.12-.42-.21-.69l-.05-.05-.05-.05c-.02-.07-.04-.21-.06-.41-.03-.21-.04-.33-.04-.39v-.18c0-.12.02-.23.05-.33.03-.1.05-.22.05-.36v-.13s-.02-.05-.05-.1c-.03-.05-.05-.09-.05-.1v-.46c0-.07,0-.19.03-.37.02-.18.04-.37.08-.57.03-.2.09-.37.15-.51.07-.15.15-.22.26-.22,0,.09-.02.16-.05.22-.03.06-.05.12-.05.19.07,0,.17,0,.31.03.14.02.23-.02.28-.1.02-.03.04-.1.08-.21.03-.1.05-.16.05-.18h.08v.23s.09.01.15.04c.07.03.11.03.13.01l.05-.05.05-.05s.11-.01.22-.04c.11-.03.18-.05.19-.06v-.13c0-.19-.04-.36-.13-.53-.09-.16-.13-.35-.13-.55.1,0,.2.02.28.05.09.03.18.05.28.05s.16-.03.18-.1c-.03-.09-.09-.13-.17-.13s-.15-.02-.22-.05l-.03-.05c0-.07.03-.16.1-.27.07-.11.11-.2.13-.27.02,0,.06,0,.14-.01.08,0,.13-.01.17-.01s.14,0,.32.03.27.08.27.18c0,.02-.02.05-.05.1-.03.05-.05.09-.05.1v.08c.14,0,.3-.02.49-.05.19-.03.33-.11.41-.23.03-.03.06-.13.09-.3s.08-.24.17-.24c0,.17.09.26.28.26.05,0,.12,0,.19-.01s.13-.04.17-.09c.02-.05.02-.1,0-.15l-.05-.1h-.36s.06-.02.08-.06c.02-.04.03-.07.03-.09,0-.03,0-.09-.03-.17-.02-.08-.04-.12-.08-.12.02,0,.03,0,.05-.03l.05.03s.06.03.14.08c.08.05.13.09.17.1.03.02.12.04.26.06.14.03.22.07.26.14.03.14.06.27.08.41.02.14.09.27.21.39.02,0,.03,0,.05-.01.02,0,.03-.01.05-.01v-.21l.05.03h.03s.06.06.12.12c.06.06.1.09.12.09h.08c.05,0,.14-.01.27-.04.13-.03.21-.05.24-.06v-.05c0-.09-.06-.14-.17-.17-.11-.03-.18-.06-.22-.09l-.03-.03s0-.03.03-.05c.02-.03.05-.08.09-.14.04-.06.07-.09.09-.09.03,0,.1.03.21.1.1.07.17.11.21.13h.03c.19,0,.3-.06.33-.19.03-.13.11-.24.23-.32.03.03.09.1.15.21.07.1.12.17.15.21.02,0,.03.03.05.08.02.05.03.09.05.1l.05.03.03-.03s.04-.02.08-.05c.02-.02.03-.03.05-.03v-.82l.18-.08c-.03.19-.03.39.01.59.04.21.11.4.19.59l.15-.08v-.95s.03.03.05.03.03,0,.05.01c.02,0,.03.01.05.01.05,0,.08.03.08.08.03.03.06.13.09.3.03.16.04.27.04.32h.1s.05-.05.1-.1c.05-.05.09-.09.1-.13h.87s-.07.11-.12.22c-.04.11-.06.18-.06.22-.02.02-.01.05.01.09.03.04.05.07.06.09.03.03.12.06.24.08.13.02.22.03.27.03-.02.05-.06.08-.12.08s-.12,0-.19.01c-.07,0-.14.03-.22.06s-.13.12-.17.26c0-.05-.02-.14-.05-.27-.03-.13-.06-.21-.08-.24,0-.03,0-.09-.03-.15-.02-.07-.03-.12-.05-.15-.05-.09-.09-.12-.12-.09s-.08.04-.17.04c0,.24.03.42.1.54.07.12.1.29.1.51h-.18l-.05.1.31.31s.03.02.04,0c0-.02.02-.03.04-.03v-.08l-.05-.1s-.03-.07-.03-.1c0-.02,0-.03.03-.05l.05-.05h.08c.12,0,.2.06.23.19.03.13.03.24,0,.32.05-.17.12-.27.21-.31.09-.03.22-.05.41-.05v.49c.19,0,.31,0,.37-.03.06-.02.17.02.32.1-.02,0-.05,0-.09.03-.04.02-.08.03-.12.05v.08c0,.14.09.22.26.26.17.03.3.05.39.05,0,.02,0,.03-.03.03l-.06.13c-.03.05-.05.08-.06.08-.03,0-.07,0-.1-.03-.03-.02-.07-.03-.1-.04-.03,0-.06-.02-.08-.04l-.1-.05-.1-.05s-.05.01-.1.04c-.05.03-.09.05-.1.06.19.17.36.38.51.62-.1.09-.19.12-.27.09-.08-.03-.18-.04-.3-.04-.02.03-.03.06-.03.08v.05s.05.09.09.15c.04.07.07.11.09.13.02.03.07.09.17.17.09.08.14.12.14.14,0,.05-.03.13-.08.23-.05.1-.09.16-.13.18-.02-.09-.09-.13-.21-.13-.03,0-.07,0-.1.01-.03,0-.06.05-.08.12.07.02.1.06.1.13v.18c0,.12-.03.2-.08.24-.05.04-.12.07-.19.09-.08.02-.17.03-.27.03s-.2,0-.28.03c-.1.03-.13.1-.09.21.04.1.01.17-.09.21-.05-.1-.1-.16-.14-.18-.04-.02-.11-.03-.19-.03-.19,0-.3.04-.35.13-.04.09-.12.15-.22.18l-.21-.1s-.09-.05-.15-.1c-.07-.05-.12-.09-.15-.1l-.08.1.08.1c-.07.1-.11.2-.13.3-.02.09-.03.18-.05.27-.02.09-.05.17-.09.24-.04.08-.12.14-.24.19.05-.12.05-.24,0-.35-.05-.11-.15-.17-.28-.17-.09,0-.15.03-.19.09-.04.06-.08.13-.12.22,0-.02,0-.04-.01-.08,0-.03-.01-.06-.01-.08,0-.03,0-.06.01-.09,0-.03.01-.05.01-.06s.02-.06.05-.14c.03-.08.05-.12.05-.14,0-.07-.03-.1-.1-.1h-.15c-.09,0-.2.03-.35.1-.15.07-.22.15-.22.23,0,.02,0,.03.03.05.02.03.07.07.15.12.09.04.14.08.15.12.02.02.02.11,0,.28-.02.17-.02.27,0,.31,0,.02,0,.04.03.08l.05.1v.03s0,.03.03.05c-.14.09-.25.15-.33.21-.09.05-.17.09-.26.13-.09.03-.14.05-.15.05,0-.14.04-.24.13-.31.09-.07.13-.17.13-.31s-.03-.21-.09-.21h-.27s0,.08.03.14c.02.06.03.11.03.14-.02.07-.06.19-.13.36-.03.07-.06.15-.08.23h-.05c0-.05-.01-.14-.04-.26-.03-.12-.1-.16-.22-.13-.07,0-.2.02-.4.06-.2.04-.34.08-.42.12-.02.02-.04.03-.08.05l-.1.05h-.15c0-.19-.09-.35-.26-.49,0,.02-.03.03-.1.03v.49c-.12,0-.19-.07-.22-.21-.03-.14-.1-.21-.22-.21,0,.05,0,.13-.03.24-.02.11-.03.19-.03.24,0,.03.03.1.08.21.05.1.09.16.13.18l.15.05c.1.03.18.05.23.05.24.05.47.1.68.14.21.04.42.1.63.17.19.07.39.12.6.14.21.03.42.08.6.17.05.02.13.05.23.09s.15.07.15.09c.02.02.03.07.05.15.02.09.03.14.05.15.02,0,.08.02.18.05.1.03.18.05.23.05h.1c.1,0,.19-.02.27-.05s.17-.05.27-.05c.19,0,.35.02.49.06.14.04.31.06.51.06,0,.14.03.22.1.24.07.03.15.04.23.04.14,0,.22-.02.24-.06.03-.04.08-.06.17-.06.07,0,.11.02.13.05.02.03.03.07.03.12s0,.08.03.12c.02.03.06.05.13.05.12,0,.17-.06.14-.17-.03-.11.02-.17.14-.17.02,0,.04,0,.06.01.03,0,.05.01.06.01.03.02.08.03.13.03s.1,0,.15.03c.07.02.14.03.21.03.07.03.1.09.1.18s.05.13.15.13h.03l.51-.49h.9l-.08.1c.05.12.16.18.32.19.16,0,.29.07.37.19l-.23.13c0,.12,0,.23-.03.33-.02.09-.03.18-.04.3,0,.11-.01.2-.01.27-.02.09-.03.13-.05.14-.02,0-.07.01-.15.01v.13h.28v.51h-.03s-.05,0-.05-.03c-.02,0-.03-.01-.05-.04-.02-.03-.03-.04-.05-.04-.03-.03-.1-.08-.21-.13-.1-.05-.17-.09-.21-.1l-.05.03c0,.09,0,.14.03.15s.04.03.06.03.05,0,.06.01c.02,0,.03.04.03.09,0,.09-.03.16-.09.22-.06.06-.13.09-.22.09h-.13s-.11-.03-.28-.05c-.17-.02-.27-.03-.31-.05h-.1l-.05.05s-.03.03-.03.05c-.03,0-.09,0-.15.03-.07.02-.12.03-.15.03v-.36c-.34.03-.64.14-.9.31v-.46s-.03-.03-.05-.03h-.05s-.04.06-.06.14c-.03.08-.04.13-.04.17h-.49l-.13.18s-.03-.05-.08-.1c-.03,0-.1-.02-.21-.05-.07-.02-.13-.03-.18-.03-.03-.03-.03-.08.03-.14.05-.06.08-.11.08-.14-.02,0-.07,0-.15-.01-.09,0-.14-.01-.15-.01l-.05.05-.05.05s-.1,0-.21.01-.17.01-.21.01v-.26s-.03.04-.05.08c-.02.03-.03.05-.05.05h-.08s-.04-.02-.08-.05c-.03-.03-.05-.06-.05-.08h-.1c-.09.05-.15.12-.18.22-.03.09-.06.19-.09.28-.03.09-.06.17-.09.23-.03.06-.08.09-.13.09-.09,0-.14-.03-.15-.08-.02-.05-.03-.11-.04-.18,0-.07-.02-.13-.04-.18-.02-.05-.08-.08-.18-.08h-.08Zm-6.92-8.69c-.05,0-.08.03-.08.09s.03.09.08.09c.03,0,.05-.03.05-.09s-.02-.09-.05-.09Zm.9.9c-.05,0-.08.03-.08.09s.03.09.08.09c.03,0,.05-.03.05-.09s-.02-.09-.05-.09Zm.08-.51c-.07.05-.1.13-.1.23.1,0,.18-.04.23-.13l-.13-.1Zm0,1.72s0-.05-.04-.05-.06.02-.04.05c.02.03.03.05.05.05s.03-.02.03-.05Zm.44-2.42c-.09,0-.15.06-.18.18-.03.12-.05.2-.05.23.03,0,.11-.03.23-.1.12-.07.18-.12.18-.15v-.05s-.07-.06-.1-.08c-.03-.02-.06-.03-.08-.03Zm.08.39s-.05.02-.05.12.02.13.05.12c.03-.03.05-.07.05-.12s-.02-.08-.05-.12Zm.67,3.04s-.01.07-.04.1-.03.07-.01.1c.02,0,.05.03.09.08.04.05.08.09.12.1.07-.02.1-.08.1-.19v-.22c0-.12-.02-.22-.06-.3-.04-.08-.06-.18-.06-.3,0-.09.02-.16.06-.22.04-.06.11-.09.19-.09h.05s.03.06.09.12c.06.06.1.09.12.09h.1s.04-.03.08-.05l.1-.05s.11-.03.22-.04c.11,0,.18-.03.19-.06.02-.02.03-.08.05-.19.02-.11.03-.18.05-.19.02,0,.07-.02.17-.05.09-.03.17-.05.22-.05h.1s.07.02.15.05c.09.03.14.05.15.05.12,0,.26-.06.42-.18.16-.12.29-.2.37-.23.03.15.07.27.12.33.04.07.13.1.27.1.03,0,.11,0,.22-.01.11,0,.18-.05.22-.12l.18-.8c.09-.03.21-.08.37-.13.16-.05.29-.08.37-.08h.05s.09.05.17.1c.08.05.12.09.14.1h.1s.04-.02.06-.05.04-.06.04-.08c.02-.03.04-.13.06-.28.03-.15.04-.26.04-.31.05,0,.17-.01.35-.04.18-.03.3-.05.35-.06.07,0,.17-.02.31-.05.07-.02.14-.03.21-.03v-.82c0,.07.03.1.08.1.07.07.15.14.26.21.05.05.1.09.15.1l.1-.1c-.14-.22-.23-.42-.28-.58-.05-.16-.19-.34-.41-.53-.09-.07-.23-.17-.42-.3-.2-.13-.35-.19-.45-.19-.19,0-.35.05-.49.14-.14.09-.27.2-.41.31-.14.11-.29.21-.45.31-.16.09-.36.14-.6.14h-.08s-.11-.03-.22-.09c-.11-.06-.18-.1-.19-.12h-.1s-.01.06-.04.14c-.03.08-.05.13-.06.17l-.21.21s-.04.03-.08.05c-.02.02-.04.03-.08.03h-.03s-.05.06-.1.12c-.05.06-.09.1-.1.12-.03,0-.1,0-.21-.01s-.17,0-.21.01c-.02,0-.04.04-.06.13-.03.09-.04.14-.04.15s-.01.03-.04.05c-.03.02-.05.03-.06.05l-.08-.1c-.5.33-.8.76-.9,1.31-.1-.07-.19-.05-.26.05-.07.1-.12.18-.15.23,0,.03-.02.1-.05.21-.03.1-.05.17-.05.21h-.18l-.21-.49s0,.05-.01.1c0,.05-.01.09-.01.13,0,.14.02.25.06.33.04.09.06.2.06.33,0,.02,0,.03-.01.05s-.01.03-.01.05v.08s-.07.06-.15.09c-.09.03-.15.03-.18.01v.69h-.26v.13c.1,0,.19-.02.27-.05.08-.03.18-.05.3-.05Zm-.28.59s0-.05-.04-.05-.06.02-.04.05c.02.03.03.05.05.05s.03-.02.03-.05Zm-.08-4.91s.01.03.04.05c.03.02.04.03.04.05.03,0,.11,0,.22.03.11.02.18.03.22.03,0-.17-.05-.26-.15-.26h-.05s-.09.01-.15.04c-.07.03-.12.05-.15.06Zm.31.31c-.05,0-.08.03-.08.09s.03.09.08.09c.03,0,.05-.03.05-.09s-.02-.09-.05-.09Zm.05-1.47c0,.14.05.24.15.31s.21.1.31.1c0-.19-.03-.3-.1-.35-.07-.04-.19-.06-.36-.06Zm.23,6.66s-.05.03-.05.1.02.1.05.1c.05,0,.08-.03.08-.1s-.03-.1-.08-.1Zm.21-1.21c-.05,0-.08.04-.08.12s.03.12.08.12.08-.04.08-.12-.03-.12-.08-.12Zm0-4.71c0,.07.03.1.1.1.07-.02.11-.06.12-.14,0-.08.01-.13.01-.17-.05,0-.1.01-.15.04-.05.03-.08.07-.08.14v.03Zm0,1.62c0,.05.03.08.1.08v-.08s-.02-.04-.05-.06c-.03-.03-.05-.05-.05-.06v.13Zm.41,7.2c-.07,0-.1.03-.1.1v.1c.09-.03.18-.06.27-.09.09-.03.14-.1.14-.22,0-.02,0-.03-.01-.03s-.01,0-.01-.03v-.03s-.1-.08-.19-.13c-.09-.05-.16-.09-.19-.1l-.1.1-.03.05v.05s0,.03.03.03c0,.02.03.05.08.1.05.05.09.08.13.08Zm-.1.41c-.05,0-.08.03-.08.09s.03.09.08.09.08-.03.08-.09-.03-.09-.08-.09Zm0-8.51h.1v-.31h-.1v.31Zm.1,3.6s0-.05-.04-.05-.06.02-.06.05.01.05.04.05.05-.02.06-.05Zm0,5.09s-.05.02-.05.06.02.06.05.06c.09-.03.09-.08,0-.13Zm.08-9.31s0-.05-.04-.05-.06.02-.04.05c.02.03.03.05.05.05s.03-.02.03-.05Zm-.08,8.1h.18v-.08h-.18v.08Zm.28,1.34s0-.05-.04-.05-.06.02-.06.05c.02.02.04.03.06.03s.04,0,.04-.03Zm.1-.44c-.05,0-.08.04-.08.12s.03.12.08.12.08-.04.08-.12-.03-.12-.08-.12Zm0-2.39h.1v-.1h-.1v.1Zm.1-7.2c-.05,0-.08.03-.08.1s.03.1.08.1.08-.03.08-.1-.03-.1-.08-.1Zm.1.1c-.05,0-.08.03-.08.1s.03.1.08.1.08-.03.08-.1-.03-.1-.08-.1Zm.1,1.29c-.05,0-.08.03-.08.1s.03.1.08.1.08-.03.08-.1-.03-.1-.08-.1Zm0,7.82h.21l-.05-.05s-.03-.03-.05-.03l-.05-.03s-.03,0-.05.03v.08Zm.21-9.21s-.01.09.01.15c.03.07.05.12.06.15h.1l.31-.1v-.05c0-.09-.03-.18-.09-.27-.06-.09-.13-.16-.22-.19-.02.03-.05.09-.1.15-.05.07-.08.12-.08.15Zm.49,9.18c-.09,0-.16.02-.22.05-.06.03-.09.09-.09.18h.31v-.23Zm.21-.05v.12s0,.08.03.12l.05.15h.13v-.64c-.14,0-.21.09-.21.26Zm.08-9.13s-.05.03-.05.1.02.1.05.1c.07,0,.1-.03.1-.1s-.03-.1-.1-.1Zm0,1.11s-.05.03-.05.09.02.09.05.09c.07,0,.1-.03.1-.09s-.03-.09-.1-.09Zm.21-1.65c-.09,0-.15.05-.21.15h.21v-.15Zm-.08,1.54c.03-.1.06-.19.08-.26.02-.07.03-.15.03-.26v-.15c0-.07-.03-.11-.1-.13v.8Zm.31,4.89l.08-.08h-.21l.13.08Zm.28,2.52c-.05,0-.08.03-.08.1s.03.1.08.1.08-.03.08-.1-.03-.1-.08-.1Zm.1-2.91s0-.05-.04-.05-.06.02-.06.05c.03.1.07.1.1,0Zm0,4.71s0-.05-.04-.05-.06.02-.06.05c.03.1.07.1.1,0Zm0-9.9c.07.1.13.19.18.27.05.08.14.12.26.12h.15c.05,0,.09-.03.1-.1-.02,0-.03-.02-.05-.05-.02-.03-.03-.05-.05-.05s-.06-.01-.14-.04c-.08-.03-.12-.05-.14-.06-.02,0-.03-.03-.05-.09-.02-.06-.03-.09-.05-.09h-.13l-.05.05s-.03.03-.03.05Zm.39,8.51s-.01-.05-.09-.05-.11.02-.09.05c.02.03.05.05.1.05s.08-.02.08-.05Zm.31.1c.07,0,.14-.03.21-.1h-.21v.1Zm.31-5.12h.1v-.1h-.1v.1Zm.21.69v-.1h-.1l.1.1Zm-.08-1.44c0,.05,0,.12.03.22.02.09.04.19.08.28.03.09.08.18.13.26.05.08.12.12.21.12l.03-.03.05-.05.05-.05s.03-.12.03-.26v-.26c-.09,0-.16.03-.23.1-.03-.09-.08-.16-.13-.23-.05-.07-.13-.1-.23-.1Zm.44-3.47s0,.09.01.17c0,.08.05.12.12.14.07,0,.1-.03.1-.1v-.05c0-.07-.03-.11-.08-.13-.05-.02-.1-.03-.15-.03Zm.03,4.63h.1v-.13h-.1v.13Zm.21,4.68c.19.1.32.21.39.31.03,0,.06,0,.08-.03l.05-.05s0-.11.01-.22c0-.11.01-.18.01-.22-.09,0-.18.03-.27.08-.09.05-.18.09-.27.13Zm0,1.72h.13c0-.09-.04-.15-.13-.21v.21Zm.28-1.24c0,.09,0,.18.03.28.02.1.09.15.21.15h.08c-.02-.1-.04-.2-.08-.3-.03-.09-.11-.14-.23-.14Zm.08-5.09s0,.11.01.22c0,.11.06.18.14.19.09-.02.13-.08.13-.19v-.22h-.28Zm.15.82v-.21l-.13.08.13.13Zm-.03-2.57s0,.03.03.05c0,.02,0,.03.03.05l.05.05c.03-.14.12-.21.26-.23.14-.02.26,0,.36.03-.03-.07-.09-.1-.15-.1h-.15s-.11,0-.23.01c-.12,0-.18.06-.18.14Zm.8.15s-.08.04-.14.06c-.06.03-.09.06-.09.12h.36l-.13-.18Zm-.18-2.7h.18v-.1h-.18v.1Zm.18,10.5s-.05.04-.05.12.02.12.05.12c.07,0,.1-.04.1-.12s-.03-.12-.1-.12Zm.31-6.1l.13-.1h-.21l.08.1Zm0-1.21s-.05.03-.05.1.02.1.05.1c.07,0,.1-.03.1-.1s-.03-.1-.1-.1Zm.13-.39s-.02-.05-.06-.05-.06.02-.06.05c.02.03.04.05.06.05s.05-.02.06-.05Zm-.13,1.21h.13v-.1h-.13v.1Zm.41.28s-.02-.05-.06-.05-.06.02-.04.05c.02.03.04.05.06.05s.04-.02.04-.05Zm-.1-.59h.1v-.1l-.1.1Zm.1-1.6c-.05,0-.08.03-.08.09s.03.09.08.09.08-.03.08-.09-.03-.09-.08-.09Zm.08.36c0,.19.04.34.13.45.09.11.15.24.21.4.05-.05.08-.09.08-.13v-.08s-.01-.09-.04-.17c-.03-.08-.04-.12-.04-.14-.03-.12-.06-.21-.06-.26,0-.05-.1-.08-.27-.08Zm.33,1.44c-.05,0-.08.03-.08.09s.03.09.08.09c.03,0,.05-.03.05-.09s-.02-.09-.05-.09Zm.08-2.52s-.05.04-.05.12.02.11.05.09c.03-.02.05-.05.05-.1s-.02-.09-.05-.1Zm.1-.39c-.05,0-.08.03-.08.1s.03.1.08.1.08-.03.08-.1-.03-.1-.08-.1Zm.41,1.8v-.1h-.31l.31.1Zm.15,6.33c-.19,0-.28.07-.28.21.12,0,.23-.07.33-.21h-.05Zm-.05-7.85c-.05,0-.08.04-.08.12s.03.12.08.12.08-.04.08-.12-.03-.12-.08-.12Zm.1.1c-.05,0-.08.03-.08.1s.03.1.08.1.08-.03.08-.1-.03-.1-.08-.1Zm.39,8.21s.02.04.05.08l.05.05c.05,0,.11-.03.17-.08.06-.05.11-.09.14-.13l-.1-.1h-.1s-.05.03-.1.05c-.05.02-.09.03-.1.05v.08Zm.21.9v-.08h-.1l.1.08Zm.1-1.36c-.05,0-.08.03-.08.09s.03.09.08.09.08-.03.08-.09-.03-.09-.08-.09Zm.31.08c-.07,0-.1.03-.1.1s.03.1.1.1c.03,0,.05-.03.05-.1s-.02-.1-.05-.1Zm.69,1.41c-.12,0-.19.03-.21.1h.1s.05-.03.1-.05c.05-.02.08-.03.08-.05h-.08Z"/><path class="cls-2" d="m623.6,45.77c-.09,0-.14,0-.15-.03-.02-.02-.07.02-.15.1-.02-.07-.04-.19-.06-.37s-.08-.31-.17-.4v-1.18c-.03-.09-.07-.18-.1-.28-.03-.1-.05-.2-.05-.28,0-.1.06-.19.19-.27.13-.08.19-.19.19-.35,0-.05-.01-.18-.04-.4s-.05-.34-.06-.37c-.02-.02-.07-.08-.15-.18-.09-.1-.13-.17-.13-.21-.02-.02-.02-.09-.01-.21,0-.12.03-.22.06-.31.02,0,.03,0,.03-.03s0-.03.03-.05.03-.04.05-.08v-.1c-.09-.26-.15-.51-.21-.77-.05-.26-.08-.52-.08-.8.02-.05.03-.09.05-.13.02-.03.03-.06.05-.08.02-.02.03-.03.03-.05v-.33c0-.1,0-.24-.03-.41-.02-.17-.05-.35-.09-.53-.04-.18-.1-.34-.18-.49-.08-.15-.18-.24-.32-.3-.02.02-.04.03-.08.05-.02.02-.04.03-.08.03h-.03s-.07,0-.1-.03l-.1-.05h-.08c-.12,0-.21.03-.28.08-.03-.17-.09-.34-.15-.51-.07-.17-.21-.22-.44-.15-.02-.09-.06-.22-.13-.4-.07-.18-.16-.3-.28-.35.26-.14.4-.32.42-.54.03-.22.04-.45.04-.69-.03,0-.08.01-.14.04-.06.03-.09-.01-.09-.12,0-.03,0-.1-.01-.21,0-.1-.01-.17-.01-.21,0-.09,0-.2-.01-.33,0-.14.03-.24.12-.31.07.02.1.06.1.14s0,.16-.03.26c-.02.09-.03.18-.03.26s.04.12.13.12.15-.03.21-.08l.08.36s.08-.02.13-.06.09-.08.1-.12v-.1s-.04-.06-.06-.14-.04-.12-.04-.14v-.1s.09-.09.15-.18c.07-.09.15-.13.23-.13v.1s-.04.05-.06.1c-.03.05-.04.09-.04.1.02.03.04.09.08.17s.07.12.1.14c.26-.03.47-.07.63-.12.16-.04.29-.2.37-.48.12,0,.21.03.27.09.06.06.11.13.14.21s.07.15.1.21c.03.06.09.09.15.09.1,0,.17-.04.21-.13.03-.09.09-.13.18-.13,0,.34.06.57.18.68.12.11.26.18.41.21.15.03.3.04.42.05.13,0,.21.08.24.22.03-.07.13-.15.28-.24.15-.09.26-.15.31-.17.03-.02.11-.02.23,0,.12.02.2.02.23,0,.19-.09.39-.24.6-.45s.37-.4.48-.55c.02,0,.03-.01.05-.04.02-.03.03-.04.05-.04.03,0,.1,0,.21.01.1,0,.16,0,.18-.01.03-.02.1-.08.19-.18.09-.1.16-.17.19-.21h.03s.03,0,.03-.01c0,0,0-.01.03-.01l.03.03s.05.01.1.04c.05.03.09.04.1.04h.1s.06-.02.14-.05c.08-.03.12-.04.14-.03.02,0,.06.05.13.14.07.09.11.14.13.14.07.03.18.06.35.08.16.02.27.03.32.03,0,.09.02.17.06.26.04.09.06.2.06.33h.13s.06-.01.13-.04c.07-.03.11-.04.13-.04h.08c.07,0,.13.04.18.12s.1.17.14.27c.04.1.09.21.15.32.06.11.14.2.24.27l.05.03h.05s-.02.09-.05.18c-.03.09-.05.14-.05.15v.08s0,.03.03.05l.08.05.03-.03s.03-.03.03-.04c0,0,0-.02.03-.04.02-.03.04-.06.08-.08l.05-.03.05.03s.09.09.18.15c.09.07.13.12.13.15v.85l-.08.1c-.09.05-.2.01-.33-.12-.14-.13-.22-.22-.26-.27-.02.03-.03.07-.04.1,0,.03-.02.07-.04.1v.08s.03.13.04.3c0,.16.02.26.04.3v.03s-.04.06-.12.14-.17.16-.27.26-.2.18-.28.24c-.09.07-.14.1-.15.1-.12,0-.21-.04-.26-.12-.05-.08-.1-.16-.14-.24-.04-.09-.09-.17-.13-.26-.04-.09-.11-.14-.19-.15-.03,0-.14.03-.31.08-.17.05-.27.09-.31.1-.09-.12-.14-.21-.15-.28-.02-.07-.03-.16-.03-.28,0-.1,0-.19.03-.26.02-.07.07-.15.15-.23h-.23c-.12,0-.19.02-.22.05-.03.03-.08.05-.17.05-.12,0-.19-.02-.21-.05-.02-.03-.11-.05-.28-.05-.26,0-.45.08-.58.24-.13.16-.22.37-.27.63l.05.1s.03.06.05.08c0,.02,0,.03-.03.05l-.08.08-.03.03c-.07,0-.11-.02-.13-.06-.02-.04-.04-.09-.06-.15-.03-.06-.07-.11-.14-.15-.07-.04-.18-.06-.33-.06-.03,0-.12.06-.26.17-.14.11-.21.21-.21.3v.05l.13.13v.08s0,.03.03.05h-.15s-.05-.03-.09-.08c-.04-.05-.07-.08-.09-.08l-.05-.03c-.14,0-.24.06-.32.19-.08.13-.12.26-.12.4,0,.09.07.15.21.18.14.03.25.03.33,0-.07.17-.12.31-.14.42-.03.11-.04.25-.04.42,0,.07.01.12.04.17.03.04.04.11.04.19s-.01.14-.04.15c-.03.02-.04.05-.04.1v.1s.05.05.1.09c.05.04.08.07.08.09l-.05.1s-.03.06-.05.08v.05c0,.1.06.27.17.49.11.22.17.4.17.54,0,.05,0,.12-.01.21,0,.09-.03.18-.05.27-.03.09-.06.17-.1.23-.04.06-.1.08-.17.06v.28c0,.27.05.6.15.96.1.37.15.68.15.94,0,.21-.04.35-.12.44-.08.09-.16.15-.24.18-.09.03-.17.06-.24.06-.08,0-.12.05-.12.12,0,.09.02.16.06.22.04.06.06.12.06.17,0,.19-.05.32-.15.4-.1.08-.22.14-.36.19-.14.05-.28.1-.42.14-.15.04-.27.12-.37.22-.02.02-.04.05-.06.09s-.04.07-.04.09h-.1l-.18-.18s-.03,0-.05-.03c-.02,0-.03,0-.05-.03v.05s-.09.06-.15.12c-.07.06-.11.11-.13.14-.02,0-.03-.02-.03-.05v-.08c0-.15.06-.26.17-.32.11-.06.17-.16.17-.3Zm-2.29-11.14s-.05.03-.05.09.02.09.05.09c.07,0,.1-.03.1-.09s-.03-.09-.1-.09Zm.41-.49s-.05,0-.05.04.02.06.05.06.05-.01.05-.04-.02-.05-.05-.06Zm1.41.62c-.12,0-.19.05-.21.14-.02.09-.03.18-.03.24h.15l.13-.36-.05-.03Zm.05,6.71l.1-.18h-.1v.18Zm.57,3.5c-.14-.03-.21.03-.23.18-.02.15-.03.25-.03.28h.18s0-.08.03-.13c.02-.03.03-.07.03-.12s0-.08.03-.12v-.1Zm-.18-4.48h.1v-.13h-.1v.13Zm.46,4.27c0,.12.03.19.1.21v-.21h-.1Zm.41-3.22s-.05.03-.05.1.02.1.05.1.05-.03.05-.1-.02-.1-.05-.1Zm.93.28c-.05.03-.09.08-.1.14-.02.06-.03.12-.03.17h.13v-.31Zm.08,2.57s-.05,0-.05.03.02.05.05.05c.03-.02.05-.03.05-.05s-.02-.03-.05-.03Zm.21-2.86v-.08h-.08l.08.08Zm.15-5.63c-.05,0-.08.03-.08.1s.03.1.08.1c.03,0,.05-.03.05-.1s-.02-.1-.05-.1Zm2.32-.13v-.15l-.1.08.1.08Zm.41-.23s.04.06.08.08c.03.02.07.03.1.03v-.1h-.18Zm1.65.08s-.05.03-.05.08.02.08.05.08c.05,0,.08-.03.08-.08s-.03-.08-.08-.08Zm.18.67v-.08h-.08l.08.08Zm.23-.28h.15l-.15-.1v.1Z"/><path class="cls-2" d="m639.66,45.35s-.06.09-.09.17c-.03.08-.04.12-.04.14,0-.07-.03-.1-.08-.1-.03,0-.12,0-.26.01-.14,0-.22,0-.26-.01-.02,0-.1-.03-.26-.08-.15-.05-.27-.09-.36-.13-.02,0-.04,0-.08-.03l-.1-.05h-.1l-.05.05s-.03.03-.05.03l-.05.03-.03-.03s0-.1-.03-.19c-.03-.09-.07-.16-.1-.19-.03-.03-.12-.07-.24-.1-.13-.03-.21-.05-.24-.05v-.23l-.41.28s-.03,0-.08-.06c-.05-.06-.09-.11-.1-.14-.03-.03-.04-.1-.01-.21.03-.1,0-.16-.09-.18-.09.03-.13.08-.13.13v.15c0,.05-.02.1-.05.14-.03.04-.12.06-.26.06-.31,0-.51-.04-.59-.13-.09-.09-.13-.19-.13-.31s0-.24.01-.35c0-.11-.05-.18-.17-.22-.03-.02-.13-.03-.28-.05-.15-.02-.27-.03-.33-.03l.13-.23c-.17-.02-.32-.07-.44-.15-.12-.09-.22-.19-.31-.32-.09-.13-.17-.27-.24-.41-.08-.15-.15-.28-.22-.4-.02-.02-.06-.08-.13-.18-.07-.1-.12-.18-.15-.23-.22-.27-.36-.51-.41-.69-.05-.19-.12-.42-.21-.69l-.05-.05-.05-.05c-.02-.07-.04-.21-.06-.41-.03-.21-.04-.33-.04-.39v-.18c0-.12.02-.23.05-.33.03-.1.05-.22.05-.36v-.13s-.02-.05-.05-.1c-.03-.05-.05-.09-.05-.1v-.46c0-.07,0-.19.03-.37.02-.18.04-.37.08-.57.03-.2.09-.37.15-.51.07-.15.15-.22.26-.22,0,.09-.02.16-.05.22-.03.06-.05.12-.05.19.07,0,.17,0,.31.03.14.02.23-.02.28-.1.02-.03.04-.1.08-.21.03-.1.05-.16.05-.18h.08v.23s.09.01.15.04c.07.03.11.03.13.01l.05-.05.05-.05s.11-.01.22-.04c.11-.03.18-.05.19-.06v-.13c0-.19-.04-.36-.13-.53-.09-.16-.13-.35-.13-.55.1,0,.2.02.28.05.09.03.18.05.28.05s.16-.03.18-.1c-.03-.09-.09-.13-.17-.13s-.15-.02-.22-.05l-.03-.05c0-.07.03-.16.1-.27.07-.11.11-.2.13-.27.02,0,.06,0,.14-.01.08,0,.13-.01.17-.01s.14,0,.32.03.27.08.27.18c0,.02-.02.05-.05.1-.03.05-.05.09-.05.1v.08c.14,0,.3-.02.49-.05.19-.03.33-.11.41-.23.03-.03.06-.13.09-.3s.08-.24.17-.24c0,.17.09.26.28.26.05,0,.12,0,.19-.01s.13-.04.17-.09c.02-.05.02-.1,0-.15l-.05-.1h-.36s.06-.02.08-.06c.02-.04.03-.07.03-.09,0-.03,0-.09-.03-.17-.02-.08-.04-.12-.08-.12.02,0,.03,0,.05-.03l.05.03s.06.03.14.08c.08.05.13.09.17.1.03.02.12.04.26.06.14.03.22.07.26.14.03.14.06.27.08.41.02.14.09.27.21.39.02,0,.03,0,.05-.01.02,0,.03-.01.05-.01v-.21l.05.03h.03s.06.06.12.12c.06.06.1.09.12.09h.08c.05,0,.14-.01.27-.04.13-.03.21-.05.24-.06v-.05c0-.09-.06-.14-.17-.17-.11-.03-.18-.06-.22-.09l-.03-.03s0-.03.03-.05c.02-.03.05-.08.09-.14.04-.06.07-.09.09-.09.03,0,.1.03.21.1.1.07.17.11.21.13h.03c.19,0,.3-.06.33-.19.03-.13.11-.24.23-.32.03.03.09.1.15.21.07.1.12.17.15.21.02,0,.03.03.05.08.02.05.03.09.05.1l.05.03.03-.03s.04-.02.08-.05c.02-.02.03-.03.05-.03v-.82l.18-.08c-.03.19-.03.39.01.59.04.21.11.4.19.59l.15-.08v-.95s.03.03.05.03.03,0,.05.01c.02,0,.03.01.05.01.05,0,.08.03.08.08.03.03.06.13.09.3.03.16.04.27.04.32h.1s.05-.05.1-.1c.05-.05.09-.09.1-.13h.87s-.07.11-.12.22c-.04.11-.06.18-.06.22-.02.02-.01.05.01.09.03.04.05.07.06.09.03.03.12.06.24.08.13.02.22.03.27.03-.02.05-.06.08-.12.08s-.12,0-.19.01c-.07,0-.14.03-.22.06s-.13.12-.17.26c0-.05-.02-.14-.05-.27-.03-.13-.06-.21-.08-.24,0-.03,0-.09-.03-.15-.02-.07-.03-.12-.05-.15-.05-.09-.09-.12-.12-.09s-.08.04-.17.04c0,.24.03.42.1.54.07.12.1.29.1.51h-.18l-.05.1.31.31s.03.02.04,0c0-.02.02-.03.04-.03v-.08l-.05-.1s-.03-.07-.03-.1c0-.02,0-.03.03-.05l.05-.05h.08c.12,0,.2.06.23.19.03.13.03.24,0,.32.05-.17.12-.27.21-.31.09-.03.22-.05.41-.05v.49c.19,0,.31,0,.37-.03.06-.02.17.02.32.1-.02,0-.05,0-.09.03-.04.02-.08.03-.12.05v.08c0,.14.09.22.26.26.17.03.3.05.39.05,0,.02,0,.03-.03.03l-.06.13c-.03.05-.05.08-.06.08-.03,0-.07,0-.1-.03-.03-.02-.07-.03-.1-.04-.03,0-.06-.02-.08-.04l-.1-.05-.1-.05s-.05.01-.1.04c-.05.03-.09.05-.1.06.19.17.36.38.51.62-.1.09-.19.12-.27.09-.08-.03-.18-.04-.3-.04-.02.03-.03.06-.03.08v.05s.05.09.09.15c.04.07.07.11.09.13.02.03.07.09.17.17.09.08.14.12.14.14,0,.05-.03.13-.08.23-.05.1-.09.16-.13.18-.02-.09-.09-.13-.21-.13-.03,0-.07,0-.1.01-.03,0-.06.05-.08.12.07.02.1.06.1.13v.18c0,.12-.03.2-.08.24-.05.04-.12.07-.19.09-.08.02-.17.03-.27.03s-.2,0-.28.03c-.1.03-.13.1-.09.21.04.1.01.17-.09.21-.05-.1-.1-.16-.14-.18-.04-.02-.11-.03-.19-.03-.19,0-.3.04-.35.13-.04.09-.12.15-.22.18l-.21-.1s-.09-.05-.15-.1c-.07-.05-.12-.09-.15-.1l-.08.1.08.1c-.07.1-.11.2-.13.3-.02.09-.03.18-.05.27-.02.09-.05.17-.09.24-.04.08-.12.14-.24.19.05-.12.05-.24,0-.35-.05-.11-.15-.17-.28-.17-.09,0-.15.03-.19.09-.04.06-.08.13-.12.22,0-.02,0-.04-.01-.08,0-.03-.01-.06-.01-.08,0-.03,0-.06.01-.09,0-.03.01-.05.01-.06s.02-.06.05-.14c.03-.08.05-.12.05-.14,0-.07-.03-.1-.1-.1h-.15c-.09,0-.2.03-.35.1-.15.07-.22.15-.22.23,0,.02,0,.03.03.05.02.03.07.07.15.12.09.04.14.08.15.12.02.02.02.11,0,.28-.02.17-.02.27,0,.31,0,.02,0,.04.03.08l.05.1v.03s0,.03.03.05c-.14.09-.25.15-.33.21-.09.05-.17.09-.26.13-.09.03-.14.05-.15.05,0-.14.04-.24.13-.31.09-.07.13-.17.13-.31s-.03-.21-.09-.21h-.27s0,.08.03.14c.02.06.03.11.03.14-.02.07-.06.19-.13.36-.03.07-.06.15-.08.23h-.05c0-.05-.01-.14-.04-.26-.03-.12-.1-.16-.22-.13-.07,0-.2.02-.4.06-.2.04-.34.08-.42.12-.02.02-.04.03-.08.05l-.1.05h-.15c0-.19-.09-.35-.26-.49,0,.02-.03.03-.1.03v.49c-.12,0-.19-.07-.22-.21-.03-.14-.1-.21-.22-.21,0,.05,0,.13-.03.24-.02.11-.03.19-.03.24,0,.03.03.1.08.21.05.1.09.16.13.18l.15.05c.1.03.18.05.23.05.24.05.47.1.68.14.21.04.42.1.63.17.19.07.39.12.6.14.21.03.42.08.6.17.05.02.13.05.23.09s.15.07.15.09c.02.02.03.07.05.15.02.09.03.14.05.15.02,0,.08.02.18.05.1.03.18.05.23.05h.1c.1,0,.19-.02.27-.05s.17-.05.27-.05c.19,0,.35.02.49.06.14.04.31.06.51.06,0,.14.03.22.1.24.07.03.15.04.23.04.14,0,.22-.02.24-.06.03-.04.08-.06.17-.06.07,0,.11.02.13.05.02.03.03.07.03.12s0,.08.03.12c.02.03.06.05.13.05.12,0,.17-.06.14-.17-.03-.11.02-.17.14-.17.02,0,.04,0,.06.01.03,0,.05.01.06.01.03.02.08.03.13.03s.1,0,.15.03c.07.02.14.03.21.03.07.03.1.09.1.18s.05.13.15.13h.03l.51-.49h.9l-.08.1c.05.12.16.18.32.19.16,0,.29.07.37.19l-.23.13c0,.12,0,.23-.03.33-.02.09-.03.18-.04.3,0,.11-.01.2-.01.27-.02.09-.03.13-.05.14-.02,0-.07.01-.15.01v.13h.28v.51h-.03s-.05,0-.05-.03c-.02,0-.03-.01-.05-.04-.02-.03-.03-.04-.05-.04-.03-.03-.1-.08-.21-.13-.1-.05-.17-.09-.21-.1l-.05.03c0,.09,0,.14.03.15s.04.03.06.03.05,0,.06.01c.02,0,.03.04.03.09,0,.09-.03.16-.09.22-.06.06-.13.09-.22.09h-.13s-.11-.03-.28-.05c-.17-.02-.27-.03-.31-.05h-.1l-.05.05s-.03.03-.03.05c-.03,0-.09,0-.15.03-.07.02-.12.03-.15.03v-.36c-.34.03-.64.14-.9.31v-.46s-.03-.03-.05-.03h-.05s-.04.06-.06.14c-.03.08-.04.13-.04.17h-.49l-.13.18s-.03-.05-.08-.1c-.03,0-.1-.02-.21-.05-.07-.02-.13-.03-.18-.03-.03-.03-.03-.08.03-.14.05-.06.08-.11.08-.14-.02,0-.07,0-.15-.01-.09,0-.14-.01-.15-.01l-.05.05-.05.05s-.1,0-.21.01-.17.01-.21.01v-.26s-.03.04-.05.08c-.02.03-.03.05-.05.05h-.08s-.04-.02-.08-.05c-.03-.03-.05-.06-.05-.08h-.1c-.09.05-.15.12-.18.22-.03.09-.06.19-.09.28-.03.09-.06.17-.09.23-.03.06-.08.09-.13.09-.09,0-.14-.03-.15-.08-.02-.05-.03-.11-.04-.18,0-.07-.02-.13-.04-.18-.02-.05-.08-.08-.18-.08h-.08Zm-6.92-8.69c-.05,0-.08.03-.08.09s.03.09.08.09c.03,0,.05-.03.05-.09s-.02-.09-.05-.09Zm.9.9c-.05,0-.08.03-.08.09s.03.09.08.09c.03,0,.05-.03.05-.09s-.02-.09-.05-.09Zm.08-.51c-.07.05-.1.13-.1.23.1,0,.18-.04.23-.13l-.13-.1Zm0,1.72s0-.05-.04-.05-.06.02-.04.05c.02.03.03.05.05.05s.03-.02.03-.05Zm.44-2.42c-.09,0-.15.06-.18.18-.03.12-.05.2-.05.23.03,0,.11-.03.23-.1.12-.07.18-.12.18-.15v-.05s-.07-.06-.1-.08c-.03-.02-.06-.03-.08-.03Zm.08.39s-.05.02-.05.12.02.13.05.12c.03-.03.05-.07.05-.12s-.02-.08-.05-.12Zm.67,3.04s-.01.07-.04.1-.03.07-.01.1c.02,0,.05.03.09.08.04.05.08.09.12.1.07-.02.1-.08.1-.19v-.22c0-.12-.02-.22-.06-.3-.04-.08-.06-.18-.06-.3,0-.09.02-.16.06-.22.04-.06.11-.09.19-.09h.05s.03.06.09.12c.06.06.1.09.12.09h.1s.04-.03.08-.05l.1-.05s.11-.03.22-.04c.11,0,.18-.03.19-.06.02-.02.03-.08.05-.19.02-.11.03-.18.05-.19.02,0,.07-.02.17-.05.09-.03.17-.05.22-.05h.1s.07.02.15.05c.09.03.14.05.15.05.12,0,.26-.06.42-.18.16-.12.29-.2.37-.23.03.15.07.27.12.33.04.07.13.1.27.1.03,0,.11,0,.22-.01.11,0,.18-.05.22-.12l.18-.8c.09-.03.21-.08.37-.13.16-.05.29-.08.37-.08h.05s.09.05.17.1c.08.05.12.09.14.1h.1s.04-.02.06-.05.04-.06.04-.08c.02-.03.04-.13.06-.28.03-.15.04-.26.04-.31.05,0,.17-.01.35-.04.18-.03.3-.05.35-.06.07,0,.17-.02.31-.05.07-.02.14-.03.21-.03v-.82c0,.07.03.1.08.1.07.07.15.14.26.21.05.05.1.09.15.1l.1-.1c-.14-.22-.23-.42-.28-.58-.05-.16-.19-.34-.41-.53-.09-.07-.23-.17-.42-.3-.2-.13-.35-.19-.45-.19-.19,0-.35.05-.49.14-.14.09-.27.2-.41.31-.14.11-.29.21-.45.31-.16.09-.36.14-.6.14h-.08s-.11-.03-.22-.09c-.11-.06-.18-.1-.19-.12h-.1s-.01.06-.04.14c-.03.08-.05.13-.06.17l-.21.21s-.04.03-.08.05c-.02.02-.04.03-.08.03h-.03s-.05.06-.1.12c-.05.06-.09.1-.1.12-.03,0-.1,0-.21-.01s-.17,0-.21.01c-.02,0-.04.04-.06.13-.03.09-.04.14-.04.15s-.01.03-.04.05c-.03.02-.05.03-.06.05l-.08-.1c-.5.33-.8.76-.9,1.31-.1-.07-.19-.05-.26.05-.07.1-.12.18-.15.23,0,.03-.02.1-.05.21-.03.1-.05.17-.05.21h-.18l-.21-.49s0,.05-.01.1c0,.05-.01.09-.01.13,0,.14.02.25.06.33.04.09.06.2.06.33,0,.02,0,.03-.01.05s-.01.03-.01.05v.08s-.07.06-.15.09c-.09.03-.15.03-.18.01v.69h-.26v.13c.1,0,.19-.02.27-.05.08-.03.18-.05.3-.05Zm-.28.59s0-.05-.04-.05-.06.02-.04.05c.02.03.03.05.05.05s.03-.02.03-.05Zm-.08-4.91s.01.03.04.05c.03.02.04.03.04.05.03,0,.11,0,.22.03.11.02.18.03.22.03,0-.17-.05-.26-.15-.26h-.05s-.09.01-.15.04c-.07.03-.12.05-.15.06Zm.31.31c-.05,0-.08.03-.08.09s.03.09.08.09c.03,0,.05-.03.05-.09s-.02-.09-.05-.09Zm.05-1.47c0,.14.05.24.15.31s.21.1.31.1c0-.19-.03-.3-.1-.35-.07-.04-.19-.06-.36-.06Zm.23,6.66s-.05.03-.05.1.02.1.05.1c.05,0,.08-.03.08-.1s-.03-.1-.08-.1Zm.21-1.21c-.05,0-.08.04-.08.12s.03.12.08.12.08-.04.08-.12-.03-.12-.08-.12Zm0-4.71c0,.07.03.1.1.1.07-.02.11-.06.12-.14,0-.08.01-.13.01-.17-.05,0-.1.01-.15.04-.05.03-.08.07-.08.14v.03Zm0,1.62c0,.05.03.08.1.08v-.08s-.02-.04-.05-.06c-.03-.03-.05-.05-.05-.06v.13Zm.41,7.2c-.07,0-.1.03-.1.1v.1c.09-.03.18-.06.27-.09.09-.03.14-.1.14-.22,0-.02,0-.03-.01-.03s-.01,0-.01-.03v-.03s-.1-.08-.19-.13c-.09-.05-.16-.09-.19-.1l-.1.1-.03.05v.05s0,.03.03.03c0,.02.03.05.08.1.05.05.09.08.13.08Zm-.1.41c-.05,0-.08.03-.08.09s.03.09.08.09.08-.03.08-.09-.03-.09-.08-.09Zm0-8.51h.1v-.31h-.1v.31Zm.1,3.6s0-.05-.04-.05-.06.02-.06.05.01.05.04.05.05-.02.06-.05Zm0,5.09s-.05.02-.05.06.02.06.05.06c.09-.03.09-.08,0-.13Zm.08-9.31s0-.05-.04-.05-.06.02-.04.05c.02.03.03.05.05.05s.03-.02.03-.05Zm-.08,8.1h.18v-.08h-.18v.08Zm.28,1.34s0-.05-.04-.05-.06.02-.06.05c.02.02.04.03.06.03s.04,0,.04-.03Zm.1-.44c-.05,0-.08.04-.08.12s.03.12.08.12.08-.04.08-.12-.03-.12-.08-.12Zm0-2.39h.1v-.1h-.1v.1Zm.1-7.2c-.05,0-.08.03-.08.1s.03.1.08.1.08-.03.08-.1-.03-.1-.08-.1Zm.1.1c-.05,0-.08.03-.08.1s.03.1.08.1.08-.03.08-.1-.03-.1-.08-.1Zm.1,1.29c-.05,0-.08.03-.08.1s.03.1.08.1.08-.03.08-.1-.03-.1-.08-.1Zm0,7.82h.21l-.05-.05s-.03-.03-.05-.03l-.05-.03s-.03,0-.05.03v.08Zm.21-9.21s-.01.09.01.15c.03.07.05.12.06.15h.1l.31-.1v-.05c0-.09-.03-.18-.09-.27-.06-.09-.13-.16-.22-.19-.02.03-.05.09-.1.15-.05.07-.08.12-.08.15Zm.49,9.18c-.09,0-.16.02-.22.05-.06.03-.09.09-.09.18h.31v-.23Zm.21-.05v.12s0,.08.03.12l.05.15h.13v-.64c-.14,0-.21.09-.21.26Zm.08-9.13s-.05.03-.05.1.02.1.05.1c.07,0,.1-.03.1-.1s-.03-.1-.1-.1Zm0,1.11s-.05.03-.05.09.02.09.05.09c.07,0,.1-.03.1-.09s-.03-.09-.1-.09Zm.21-1.65c-.09,0-.15.05-.21.15h.21v-.15Zm-.08,1.54c.03-.1.06-.19.08-.26.02-.07.03-.15.03-.26v-.15c0-.07-.03-.11-.1-.13v.8Zm.31,4.89l.08-.08h-.21l.13.08Zm.28,2.52c-.05,0-.08.03-.08.1s.03.1.08.1.08-.03.08-.1-.03-.1-.08-.1Zm.1-2.91s0-.05-.04-.05-.06.02-.06.05c.03.1.07.1.1,0Zm0,4.71s0-.05-.04-.05-.06.02-.06.05c.03.1.07.1.1,0Zm0-9.9c.07.1.13.19.18.27.05.08.14.12.26.12h.15c.05,0,.09-.03.1-.1-.02,0-.03-.02-.05-.05-.02-.03-.03-.05-.05-.05s-.06-.01-.14-.04c-.08-.03-.12-.05-.14-.06-.02,0-.03-.03-.05-.09-.02-.06-.03-.09-.05-.09h-.13l-.05.05s-.03.03-.03.05Zm.39,8.51s-.01-.05-.09-.05-.11.02-.09.05c.02.03.05.05.1.05s.08-.02.08-.05Zm.31.1c.07,0,.14-.03.21-.1h-.21v.1Zm.31-5.12h.1v-.1h-.1v.1Zm.21.69v-.1h-.1l.1.1Zm-.08-1.44c0,.05,0,.12.03.22.02.09.04.19.08.28.03.09.08.18.13.26.05.08.12.12.21.12l.03-.03.05-.05.05-.05s.03-.12.03-.26v-.26c-.09,0-.16.03-.23.1-.03-.09-.08-.16-.13-.23-.05-.07-.13-.1-.23-.1Zm.44-3.47s0,.09.01.17c0,.08.05.12.12.14.07,0,.1-.03.1-.1v-.05c0-.07-.03-.11-.08-.13-.05-.02-.1-.03-.15-.03Zm.03,4.63h.1v-.13h-.1v.13Zm.21,4.68c.19.1.32.21.39.31.03,0,.06,0,.08-.03l.05-.05s0-.11.01-.22c0-.11.01-.18.01-.22-.09,0-.18.03-.27.08-.09.05-.18.09-.27.13Zm0,1.72h.13c0-.09-.04-.15-.13-.21v.21Zm.28-1.24c0,.09,0,.18.03.28.02.1.09.15.21.15h.08c-.02-.1-.04-.2-.08-.3-.03-.09-.11-.14-.23-.14Zm.08-5.09s0,.11.01.22c0,.11.06.18.14.19.09-.02.13-.08.13-.19v-.22h-.28Zm.15.82v-.21l-.13.08.13.13Zm-.03-2.57s0,.03.03.05c0,.02,0,.03.03.05l.05.05c.03-.14.12-.21.26-.23.14-.02.26,0,.36.03-.03-.07-.09-.1-.15-.1h-.15s-.11,0-.23.01c-.12,0-.18.06-.18.14Zm.8.15s-.08.04-.14.06c-.06.03-.09.06-.09.12h.36l-.13-.18Zm-.18-2.7h.18v-.1h-.18v.1Zm.18,10.5s-.05.04-.05.12.02.12.05.12c.07,0,.1-.04.1-.12s-.03-.12-.1-.12Zm.31-6.1l.13-.1h-.21l.08.1Zm0-1.21s-.05.03-.05.1.02.1.05.1c.07,0,.1-.03.1-.1s-.03-.1-.1-.1Zm.13-.39s-.02-.05-.06-.05-.06.02-.06.05c.02.03.04.05.06.05s.05-.02.06-.05Zm-.13,1.21h.13v-.1h-.13v.1Zm.41.28s-.02-.05-.06-.05-.06.02-.04.05c.02.03.04.05.06.05s.04-.02.04-.05Zm-.1-.59h.1v-.1l-.1.1Zm.1-1.6c-.05,0-.08.03-.08.09s.03.09.08.09.08-.03.08-.09-.03-.09-.08-.09Zm.08.36c0,.19.04.34.13.45.09.11.15.24.21.4.05-.05.08-.09.08-.13v-.08s-.01-.09-.04-.17c-.03-.08-.04-.12-.04-.14-.03-.12-.06-.21-.06-.26,0-.05-.1-.08-.27-.08Zm.33,1.44c-.05,0-.08.03-.08.09s.03.09.08.09c.03,0,.05-.03.05-.09s-.02-.09-.05-.09Zm.08-2.52s-.05.04-.05.12.02.11.05.09c.03-.02.05-.05.05-.1s-.02-.09-.05-.1Zm.1-.39c-.05,0-.08.03-.08.1s.03.1.08.1.08-.03.08-.1-.03-.1-.08-.1Zm.41,1.8v-.1h-.31l.31.1Zm.15,6.33c-.19,0-.28.07-.28.21.12,0,.23-.07.33-.21h-.05Zm-.05-7.85c-.05,0-.08.04-.08.12s.03.12.08.12.08-.04.08-.12-.03-.12-.08-.12Zm.1.1c-.05,0-.08.03-.08.1s.03.1.08.1.08-.03.08-.1-.03-.1-.08-.1Zm.39,8.21s.02.04.05.08l.05.05c.05,0,.11-.03.17-.08.06-.05.11-.09.14-.13l-.1-.1h-.1s-.05.03-.1.05c-.05.02-.09.03-.1.05v.08Zm.21.9v-.08h-.1l.1.08Zm.1-1.36c-.05,0-.08.03-.08.09s.03.09.08.09.08-.03.08-.09-.03-.09-.08-.09Zm.31.08c-.07,0-.1.03-.1.1s.03.1.1.1c.03,0,.05-.03.05-.1s-.02-.1-.05-.1Zm.69,1.41c-.12,0-.19.03-.21.1h.1s.05-.03.1-.05c.05-.02.08-.03.08-.05h-.08Z"/><path class="cls-2" d="m660.96,35.76s.01.04.04.06c.03.03.05.05.06.06h.05c.1,0,.17-.06.19-.18.03-.12.04-.22.04-.31.05.17.08.32.08.44v.37c0,.13,0,.28.03.46.02.18.07.42.15.73-.1-.03-.16,0-.17.12,0,.11,0,.24.04.4.03.15.07.31.12.46.04.15.06.26.06.31v.1c.02.07.05.17.09.3.04.13.09.26.14.4.05.14.1.27.14.39.04.12.07.2.09.23.05.1.17.29.35.57.18.27.38.56.6.86.22.3.45.57.67.8.22.23.4.35.54.35h.05s.09-.06.18-.13c.09-.07.15-.1.18-.1h.05s.03,0,.04-.01c0,0,.03-.01.06-.01l.05.03h.05s.03.03.05.1c.02.07.03.11.05.13.07.03.13.03.19-.01.06-.04.11,0,.14.12v.33s.07.06.17.08c.09.02.16.03.19.05v.1s-.06.06-.13.13-.1.11-.1.13c-.02.03-.02.15,0,.35.02.2.02.31,0,.35-.02.03-.08.09-.18.18-.1.09-.15.15-.15.18-.02.03-.04.1-.06.19s-.04.16-.04.19c-.1,0-.2-.05-.28-.14-.09-.09-.18-.14-.28-.14-.02,0-.03,0-.05.03-.02.02-.04.07-.06.17-.03.09-.05.15-.06.17h-.1s-.07-.08-.17-.18c-.09-.1-.15-.15-.17-.15-.14-.05-.28-.07-.42-.06-.15,0-.28,0-.41-.03-.13-.03-.23-.09-.31-.19-.08-.1-.12-.28-.14-.54-.03,0-.08.02-.14.05-.06.03-.1.05-.12.05s-.03,0-.03.03c0-.38-.05-.6-.15-.68s-.21-.12-.33-.12-.23,0-.33-.03c-.1-.02-.15-.17-.15-.46-.14,0-.2,0-.19-.03,0-.02-.06.03-.19.13v-.62s-.02-.04-.05-.06c-.03-.03-.06-.04-.08-.04l-.23.49s-.04-.12-.06-.24-.04-.21-.04-.24v-.1s-.04,0-.06-.01-.05-.01-.06-.01l-.36.13v-.13c0-.09.02-.15.05-.19.03-.04.05-.11.05-.19,0-.12-.07-.27-.22-.44-.15-.17-.26-.28-.35-.33-.03.1-.1.22-.21.35-.1.13-.2.21-.28.24-.02,0-.07.01-.17.04-.09.03-.2.05-.32.08-.12.03-.24.05-.35.08s-.18.04-.22.04c-.09.02-.14.06-.17.12-.03.06-.06.12-.09.19-.03.07-.08.13-.13.18-.05.05-.15.08-.28.08-.09,0-.13-.03-.13-.1-.09.14-.12.22-.1.24.02.03.03.11.03.24h.13c0,.07-.07.15-.22.26-.15.1-.31.21-.5.31-.19.1-.38.19-.57.26-.19.07-.33.1-.41.1-.03,0-.08-.01-.13-.04-.05-.03-.09-.05-.1-.06,0,.03-.01.09-.04.17-.03.08-.05.13-.06.17l-.05.03-.08-.03s-.06-.01-.13-.04c-.07-.03-.12-.05-.15-.06v.46h-.05c-.07,0-.11,0-.13-.03-.1-.02-.21-.04-.32-.08-.11-.03-.17-.12-.17-.26,0-.09.03-.15.08-.18s.08-.1.08-.21c0-.09,0-.16-.03-.23-.02-.07-.07-.1-.15-.1-.1,0-.18.06-.22.17-.04.11-.07.23-.09.36-.02.13-.03.26-.03.39v.22h-.23c-.1,0-.21,0-.33.01-.12,0-.23.02-.33.03-.1,0-.18.01-.23.01-.03,0-.08.01-.14.04-.06.03-.1.05-.12.06.07-.19.04-.4-.09-.64-.13-.24-.28-.36-.45-.36,0,.26.06.48.17.67.11.19.17.4.17.64,0,.02,0,.05-.01.09,0,.04-.01.07-.01.09-.19-.24-.33-.39-.44-.46s-.22-.22-.36-.46c0-.02-.02-.04-.05-.06-.03-.03-.06-.05-.08-.06h-.08c-.05,0-.09.03-.12.09-.03.06-.05.12-.06.19-.02.07-.03.14-.03.21v.13c-.17,0-.28-.05-.32-.15-.04-.1-.08-.21-.1-.32-.03-.11-.07-.2-.13-.27-.06-.07-.18-.06-.35.03-.05.12-.09.25-.13.39s-.07.27-.1.41h-.1s-.09-.12-.17-.26c-.08-.14-.16-.21-.24-.21h-.05s-.04.09-.06.17-.04.13-.04.17c-.19-.02-.38-.14-.57-.37-.19-.23-.28-.44-.28-.63.09,0,.17-.02.24-.05.08-.03.12-.1.12-.21,0-.19-.06-.36-.17-.53-.11-.16-.17-.32-.17-.48,0-.09.02-.15.05-.21.03-.05.05-.12.05-.21,0-.15-.08-.23-.23-.23-.1,0-.17.04-.21.13-.03.09-.1.13-.21.13-.02,0-.03,0-.04-.01,0,0-.02-.01-.04-.01-.12-.29-.21-.56-.26-.8-.05-.24-.08-.51-.08-.8,0-.31,0-.56.03-.76.02-.2.09-.47.21-.81.02-.07.05-.11.1-.12.05,0,.1-.01.15-.01s.1,0,.14-.03c.04-.02.06-.08.06-.18h-.26c0-.21.04-.34.12-.4.08-.06.16-.11.24-.14.09-.03.17-.08.24-.13s.12-.16.12-.33v-.05s-.01-.04-.04-.06c-.03-.03-.05-.05-.06-.06.07-.14.13-.28.19-.44.06-.15.12-.3.19-.44.07-.14.15-.27.26-.39.1-.12.24-.21.41-.26.02-.02.07-.02.17-.01.09,0,.15.01.17.01.07-.05.11-.12.13-.19.02-.08.04-.15.06-.23s.08-.15.17-.21c.09-.06.22-.09.41-.09.02,0,.03,0,.05.03.02,0,.04.02.06.05.03.03.05.05.06.05l.05.03s.03,0,.05-.03c.02,0,.04-.02.06-.05s.05-.05.06-.05l.05-.03c.09,0,.15.03.18.08.03.05.12.08.26.08.17,0,.3-.08.37-.24s.16-.24.24-.24l.05.03s.06.02.12.05c.06.03.1.05.12.05s.06-.02.13-.05c.07-.03.11-.05.13-.05h.03s.03,0,.03-.01,0-.01.03-.01l.03.03.23.57c.17,0,.26-.08.26-.23,0-.14-.05-.24-.15-.31-.1-.07-.15-.2-.15-.39.14,0,.25-.03.33-.08.09-.05.2-.08.33-.08.19,0,.39.06.6.18.21.12.42.18.6.18h.05c-.07-.14-.06-.24.01-.32s.18-.13.31-.17.27-.06.41-.06c.15,0,.25-.01.32-.01.03,0,.08.01.13.04.05.03.09.05.1.06-.05-.17-.04-.27.04-.3s.16-.04.24-.04c.19,0,.33.05.42.15.09.1.23.15.4.15,0-.21-.01-.38-.04-.53-.03-.15.01-.31.12-.5,0-.02.03-.05.1-.1.07-.05.11-.09.13-.13v-.1c0-.22-.02-.42-.06-.6-.04-.18-.06-.39-.06-.63v-.77l.13-.21v-.13l-.13-.26v-.05c0-.12.02-.26.06-.42.04-.16.09-.33.14-.49.05-.16.1-.33.15-.49.05-.16.09-.3.1-.4,0-.02-.02-.06-.05-.12-.03-.06-.05-.1-.05-.12-.02-.05-.03-.1-.03-.15v-.21c0-.45.08-.85.24-1.21.16-.36.32-.74.48-1.13.14.17.29.29.46.36.03-.14.09-.27.17-.4.08-.13.2-.19.37-.19h.05c.26.24.5.51.73.81.23.3.42.62.55.96l.13.46s.07.15.12.33c.04.19.08.3.12.33.02.02,0,.08-.06.18-.06.1-.12.16-.17.18-.19.03-.27.12-.24.24.03.13.08.29.17.49.09.2.17.41.24.64.08.23.09.48.04.73-.03-.03-.1-.07-.21-.1-.03-.03-.06-.08-.09-.14-.03-.06-.04-.1-.04-.12s.02-.07.05-.17c.03-.09.06-.15.08-.17v-.13c0-.09-.02-.17-.05-.24-.03-.08-.09-.12-.18-.12-.05,0-.1.04-.15.13-.05.09-.1.18-.15.28s-.09.21-.13.31c-.03.1-.05.16-.05.18,0,.12.06.18.19.19.13,0,.23,0,.3-.01l.1.69-.23.1s.08.1.13.19.09.16.1.19c0,.02,0,.03.03.05.02.02.03.04.05.08.02.03.03.06.05.08,0,.02-.02.04-.05.06-.03.03-.06.05-.08.06l-.03.03c0,.15-.02.29-.05.4-.03.11-.08.21-.13.31-.05.09-.09.19-.13.28-.03.09-.05.21-.05.35-.12,0-.24-.03-.36-.08-.12-.05-.18.03-.18.23,0,.15.03.27.1.35.07.08.15.14.24.19.09.05.19.1.28.15.09.05.16.13.19.23,0,.03.01.09.04.18.03.09.05.18.08.3.03.11.05.21.06.31.02.09.03.15.05.17,0,.07.03.1.1.1.07-.02.13-.05.18-.1l.08.26c-.24.02-.36.16-.36.44Zm-12.86,4.91h.1v-.1h-.1v.1Zm.44-2.21h.13v-.23h-.13v.23Zm.36,5.5h.1l-.1-.13v.13Zm.49-7.38s-.02-.05-.06-.05-.06.02-.06.05c.03.09.08.09.13,0Zm.44,3.7c0,.15.1.29.3.41.2.12.34.22.42.31l.46.62c.1.1.27.18.5.24.23.06.42.12.55.19.05,0,.17,0,.35.01s.3.01.35.01c.31,0,.57-.02.8-.05.22-.03.44-.09.66-.15.21-.07.44-.15.67-.26.23-.1.5-.22.81-.36.07-.03.17-.09.3-.18.13-.09.26-.17.4-.24.14-.08.26-.15.37-.21.11-.06.18-.08.22-.06l.82-.82h.31v.59h.31s0-.04-.01-.06c0-.03-.01-.05-.01-.06l-.13-.26v-.05c0-.07.03-.15.08-.26.05-.1.12-.15.21-.15l.05.03h.03l.1.1.33.23c.19-.09.28-.22.28-.41,0-.09-.06-.16-.19-.23-.13-.07-.23-.12-.3-.15.02-.03.06-.09.12-.18.06-.09.09-.15.09-.18v-.08s0-.1-.01-.21c0-.1-.03-.21-.05-.31-.03-.1-.06-.19-.1-.27s-.1-.11-.17-.09c-.02,0-.05.04-.1.12-.05.08-.09.12-.13.14h-.23c-.02-.12-.05-.29-.1-.51-.05-.22-.17-.33-.36-.33-.15,0-.27.09-.36.26l-.33-.46s.01-.04.04-.06l.06-.06c.09-.05.15-.09.21-.12.05-.03.09-.06.12-.09s.04-.08.05-.14c0-.06.01-.16.01-.3-.19,0-.31.07-.37.22-.06.15-.14.29-.24.42-.02-.22-.07-.39-.17-.5-.09-.11-.19-.2-.3-.26-.1-.06-.19-.11-.27-.14s-.11-.09-.09-.18c-.07.14-.1.22-.1.26,0,.02.02.06.05.12.03.06.05.1.05.12v.05s0,.03-.03.05c-.1,0-.21-.02-.32-.05-.11-.03-.23-.05-.35-.05h-.13s-.06.04-.12.08c-.06.03-.1.05-.12.05l-.23-.23-.05-.03-.05.03-.49.23c-.29.05-.62.09-.99.1-.37.02-.74.06-1.12.12-.38.06-.72.17-1.03.33-.31.16-.54.41-.69.73-.02.02-.02.08-.01.18,0,.1.01.16.01.18-.09.19-.21.36-.37.51-.16.15-.24.35-.24.59,0,.12.02.23.06.32.04.09.06.2.06.32,0,.1-.02.19-.06.27s-.06.17-.06.27Zm4.42-4.78c0,.19.09.28.28.28,0-.19-.09-.28-.28-.28Zm.39-.57h.13v-.1h-.13v.1Zm.23,8.41v-.1h-.1l.1.1Zm.13-7.69c.07-.03.11-.09.13-.17.02-.08.03-.14.03-.19h-.15v.36Zm.46,7.25s-.05,0-.05.04.02.06.05.06c.03-.02.05-.04.05-.06s-.02-.04-.05-.04Zm.82-8.9c-.07,0-.1.04-.1.12s.03.12.1.12c.05,0,.08-.04.08-.12s-.03-.12-.08-.12Zm.1,1.29c.1-.05.15-.13.15-.23h-.15v.23Zm.23,7.38c-.05,0-.08.04-.08.12s.03.12.08.12c.07,0,.1-.04.1-.12s-.03-.12-.1-.12Zm1.05-2.11h.13l-.13-.13v.13Zm.57-8c0,.05,0,.12.01.21,0,.09.06.15.14.18l.23-.23c-.03-.09-.09-.13-.18-.14-.09,0-.15-.01-.21-.01Zm.26,1.21v-.23l-.1.1.1.13Zm0,7.49c-.05,0-.08.04-.08.12s.03.12.08.12c.07,0,.1-.04.1-.12s-.03-.12-.1-.12Zm.93-11.29c0,.09.05.2.14.33.09.14.18.21.27.21h.05s.03,0,.03-.03l.05-.1.05-.1v-.13s-.02-.13-.05-.3c-.03-.16-.05-.26-.05-.3-.02,0-.03,0-.04-.01,0,0-.02-.01-.04-.01l-.05.03-.33.33-.03.08Zm.03,3.81l.1-.13h-.1v.13Zm.23-8.08s-.05,0-.05.05.02.08.05.08c.09-.03.09-.08,0-.13Zm.93,15.43c-.05,0-.08.04-.08.13s.03.13.08.13c.07,0,.1-.04.1-.13s-.03-.13-.1-.13Zm.13-6.3c-.09.03-.13.09-.14.15,0,.07-.01.13-.01.18h.15v-.33Zm0,.57c-.07,0-.1.04-.1.13s.03.13.1.13c.05,0,.08-.04.08-.13s-.03-.13-.08-.13Zm.33,2.34h.1v-.1h-.1v.1Zm.28-2.42v.08s-.03-.04-.03-.08h.03Zm1.26,8.28v-.1h-.15l.15.1Zm.23.31c0,.15.06.26.19.32s.25.09.37.09.21-.02.27-.05c.06-.03.09-.12.09-.26,0-.12-.03-.21-.1-.28-.07-.07-.15-.12-.23-.15-.09-.03-.18-.07-.27-.12-.09-.04-.17-.12-.22-.22-.02.03-.04.13-.06.3-.03.16-.04.26-.04.3v.08Z"/><path class="cls-2" d="m678.73,46.23s.02-.06.05-.09c.03-.03.06-.05.08-.06-.24-.12-.43-.34-.57-.66-.14-.32-.21-.6-.23-.84-.02-.22.02-.43.12-.62.09-.19.14-.39.14-.62-.03-.19-.08-.36-.14-.53-.06-.16-.1-.34-.12-.53-.03-.29,0-.58.09-.86.09-.28.13-.56.12-.84,0-.12-.03-.2-.09-.23-.06-.03-.1-.12-.12-.26,0-.15,0-.32.03-.5.02-.18.04-.36.06-.54.03-.18.05-.36.06-.53.02-.17.03-.31.03-.41,0-.02-.02-.06-.05-.14-.03-.08-.07-.16-.12-.26-.04-.09-.09-.18-.13-.26-.04-.08-.07-.13-.09-.17v-.03s.03-.11.08-.23c.05-.12.11-.27.18-.45.07-.18.13-.37.18-.58.05-.21.07-.4.05-.59-.05-.79-.13-1.56-.23-2.3-.1-.75-.19-1.52-.26-2.33,0-.12,0-.29-.01-.5,0-.21-.02-.43-.03-.64,0-.21-.02-.4-.03-.57,0-.16-.01-.26-.01-.3l.05-.82c.22.03.35.02.39-.05.03-.07.05-.16.05-.28-.02-.03-.03-.08-.03-.13v-.1s-.01-.1-.04-.21c-.03-.1-.05-.21-.06-.33-.02-.12-.04-.23-.06-.33-.03-.1-.04-.17-.04-.21-.02-.02-.03-.05-.03-.1v-.05c-.12-.33-.21-.64-.28-.94-.07-.3-.08-.54-.03-.72.05-.18.19-.29.41-.33.22-.04.57.01,1.03.17.07-.07.1-.15.1-.24s0-.18-.03-.27c-.02-.09-.02-.16-.01-.23,0-.07.06-.11.14-.13.05,0,.12.03.19.08.08.05.15.11.23.18.08.07.15.14.21.21.06.07.1.12.12.15.15.27.27.53.36.77.09.24.15.48.19.72.04.24.06.5.06.77s0,.57-.03.9c.03.05.09.16.18.33.09.17.14.27.15.31v.18c.02.07.02.12,0,.17-.02.04-.09.07-.21.09l.1,1.23-.36-.23c-.09.03-.13.07-.14.12,0,.04-.01.1-.01.17v.08s0,.03.03.05c.02.02.07.04.17.06.09.03.14.05.14.06.1.15.18.33.23.54.05.21.11.4.17.58.06.18.15.33.28.44.13.11.33.16.6.14.27,0,.47-.01.58-.04.11-.03.19-.03.23-.01.04.02.07.06.09.14.02.08.07.21.15.4h.08c.09,0,.15-.06.21-.18.05-.12.09-.21.13-.28.05.14.16.22.32.24.16.03.31.02.45-.01.22-.02.42-.1.59-.24.17-.15.39-.23.67-.24h.1s.03,0,.05-.03c.03,0,.1.02.21.05.1.03.17.05.21.05.21.14.31.25.31.35s.04.26.13.5c.07.12.13.16.18.13.05-.03.13-.03.23,0,.02,0,.06.05.14.14.08.09.17.21.27.33.1.13.21.25.31.37s.21.21.31.26c.1.05.16.1.18.14.02.04.03.12.03.24.03.22.03.44-.03.66-.05.21-.07.43-.05.66,0,.14.02.22.05.26.03.03.1.05.21.05l-.03-.64c.1,0,.21,0,.31.01s.2.04.28.09c.07.31.12.55.14.73.03.18.06.42.09.71v.24c0,.13,0,.21.03.24-.39.05-.58.22-.57.51.03.31.24.45.62.44-.09.21-.22.31-.41.31-.07,0-.13-.02-.18-.05-.05-.03-.11-.08-.18-.13-.07-.05-.14-.09-.22-.13-.08-.03-.17-.05-.27-.05h-.1c.03.33.11.63.22.93.11.29.25.57.42.82.03-.09.09-.14.18-.17.09-.03.16-.04.23-.04l.03.36c-.22.02-.4,0-.54-.04-.14-.04-.3-.06-.49-.06.02.27,0,.5-.05.67-.05.17-.11.33-.17.46-.06.14-.11.27-.15.41-.04.14-.06.32-.04.54-.03,0-.05,0-.05.03-.03,0-.09-.02-.17-.06s-.12-.06-.14-.04l-.08.08-.05.05c0,.07.03.14.1.22.07.08.14.13.21.17-.03,0-.09.01-.15.04-.07.03-.12.04-.15.04-.14,0-.26-.03-.36-.1-.1-.07-.2-.15-.3-.23-.09-.09-.19-.16-.3-.22s-.23-.09-.39-.09c.02.17.03.31.03.42s0,.22-.01.32c0,.1-.02.22-.04.36-.02.14-.05.32-.1.54-.02.14-.05.23-.09.27-.04.04-.09.07-.14.09-.05.02-.11.04-.18.06-.07.03-.14.07-.21.14-.05.05-.1.15-.14.28-.04.14-.09.27-.14.4s-.11.24-.18.35c-.07.1-.15.15-.26.15l-.05-.28-.41.03s.06.11.12.22c.06.11.07.18.04.22,0,.02-.06.04-.18.06-.12.03-.19.04-.21.04-.02.02-.06.05-.14.09s-.12.06-.14.06c-.05,0-.13,0-.24.03-.11.02-.23.03-.36.04-.13,0-.25.02-.37.03-.12,0-.21.01-.26.01l-.26.57c-.03-.1-.09-.15-.15-.14-.07,0-.14.02-.21.03-.07,0-.12,0-.17-.05-.04-.04-.06-.16-.04-.35-.14.09-.33.18-.57.27-.24.09-.42.16-.54.19,0,.09-.03.22-.1.41-.07.19-.17.3-.31.33-.14.02-.32,0-.54-.08-.22-.07-.35-.21-.39-.44Zm-.03-.93c-.09,0-.13.04-.13.12s.04.12.13.12c.09-.02.13-.06.13-.14s-.04-.11-.13-.09Zm.51-.26c.02.14.09.23.23.28.14.05.26.06.36.03v-.08l-.03-.05v-.03s-.05-.06-.1-.12c-.05-.06-.08-.1-.08-.12,0-.03.01-.09.04-.17.03-.08.06-.13.09-.17h-.08s-.12.08-.24.19c-.13.11-.19.18-.19.22Zm.05.9c.05.12.14.16.26.13l-.03-.31c-.12.03-.2.09-.23.18Zm.31-21.02h.15l-.03-.13h-.15l.03.13Zm.41,19.55c.02.14.07.31.15.51.09.21.21.31.39.31.1,0,.15-.05.15-.15s-.01-.22-.04-.35c-.03-.13-.04-.25-.05-.37,0-.12.03-.2.12-.23,0-.02.05,0,.15.05.1.05.21.1.33.15.12.05.23.1.33.15.1.05.15.07.15.05-.03-.29-.12-.51-.27-.67-.15-.15-.37-.21-.68-.18-.19.02-.36.09-.53.22-.16.13-.24.3-.22.5Zm.18-16.95c-.09,0-.13.05-.13.14s.04.14.13.14c.07,0,.1-.05.1-.14s-.03-.14-.1-.14Zm.13,4.4s.02-.05-.05-.05-.09.02-.08.05c.02.05.04.08.08.08s.05-.03.05-.08Zm.82,10.6c-.09.07-.18.15-.28.24-.1.09-.15.21-.15.35h.14c.08,0,.17,0,.27-.01.1,0,.2-.03.28-.06.09-.03.14-.09.15-.15.03-.03.06-.13.06-.3,0-.16.03-.25.06-.27.02,0,.06,0,.12-.01.06,0,.13-.01.21-.01h.35s.1-.09.21-.23c.1-.14.17-.21.21-.23.03-.02.08,0,.13.03.05.03.09.05.1.05,0,.22-.02.35-.05.39-.03.03-.04.12-.03.26,0,.09.03.15.1.19.07.04.15.07.23.08.09,0,.17,0,.26,0,.09,0,.15-.01.18-.01-.02-.26-.08-.44-.19-.55-.11-.11-.17-.28-.17-.5-.02-.1.07-.24.26-.4.19-.16.42-.36.69-.59.27-.23.58-.48.91-.76.33-.27.64-.57.91-.9.27-.33.5-.67.67-1.04.17-.37.24-.76.21-1.17,0-.15-.03-.26-.08-.32-.05-.06-.11-.11-.17-.15-.06-.04-.12-.08-.19-.12-.07-.03-.13-.09-.18-.18-.07-.15-.07-.27-.01-.33.06-.07.14-.12.24-.17s.21-.09.31-.13c.1-.04.15-.12.15-.22-.02-.24-.12-.43-.32-.57-.2-.14-.43-.24-.71-.3-.27-.06-.54-.1-.81-.12-.27-.02-.47-.02-.6,0,0,.09.03.17.1.24.07.08.1.17.1.27v.15s-.04-.04-.08-.08c-.03-.03-.06-.05-.08-.05-.19-.05-.33-.1-.41-.14-.09-.04-.16-.09-.23-.13-.07-.04-.14-.1-.21-.17-.07-.07-.17-.17-.31-.31l-.05-.03c-.12,0-.27,0-.45.03-.18.02-.36.05-.55.1-.19.05-.36.11-.53.18-.16.07-.27.15-.32.26,0,.05-.03.14-.1.27-.07.13-.14.26-.22.4-.08.14-.15.27-.21.4-.06.13-.09.22-.09.27,0,.03,0,.12.01.26,0,.14.02.28.03.44,0,.15.02.3.04.44.02.14.03.22.03.26,0,.1,0,.3.01.6,0,.3.01.61.01.93s0,.61-.03.87c-.02.27-.05.41-.1.42l-.15-.15v-.13s.02-.06.06-.14c.04-.08.06-.12.06-.14,0-.03-.02-.06-.05-.09-.03-.03-.07-.04-.1-.04-.1.03-.17.1-.19.19-.03.09-.03.2-.01.31.02.11.03.22.04.33,0,.11,0,.2-.01.27-.03.05-.05.15-.05.28v.44c0,.15,0,.31.03.45.02.15.03.25.03.32,0,.17.05.28.15.32.1.04.22.08.36.12Zm-.54-10.6h.15v-.15l-.15.15Zm.03,5.04l.13-.18-.13.05v.13Zm.1-8.93c-.07.02-.09.07-.08.17.02.09.05.13.1.12.09,0,.12-.05.12-.14,0-.09-.06-.14-.14-.14Zm.21,5.12c-.05.02-.07.07-.06.15,0,.09.04.12.09.1.09,0,.12-.04.12-.13,0-.09-.06-.13-.14-.13Zm1.03,11.24c-.05-.02-.07,0-.06.06,0,.06.03.09.06.09.03-.02.05-.04.05-.08s-.02-.06-.05-.08Zm1.18-.51l.28-.03s-.02-.04-.05-.06c-.03-.03-.07-.05-.1-.06h-.13v.15Zm.49-11.76s-.05,0-.05.08.02.09.05.08c.05-.02.08-.04.08-.08s-.03-.06-.08-.08Zm.18,9.54s-.04,0-.03.05c.02.05.04.08.08.08.05-.03.07-.07.05-.1-.02-.03-.05-.04-.1-.03Zm.1-7.74s.01.08.04.14c.03.06.06.11.09.14.09-.07.14-.15.15-.26.02-.1.02-.19,0-.26-.03.02-.09.04-.18.06-.09.03-.12.08-.1.17Zm.41,9.18l.13-.15-.15-.1.03.26Zm.59.36h.13v-.26h-.13v.26Zm.93-2.39c.46.12.94.15,1.44.1,0-.03-.01-.12-.04-.26-.03-.14-.06-.28-.09-.42-.03-.15-.08-.27-.13-.39-.05-.11-.1-.17-.15-.17l-.05.05s-.03.03-.03.05,0,.03-.03.03c-.03.03-.1.15-.19.33l-.19.39c-.09-.03-.2-.04-.35-.03-.15.02-.21.09-.19.23v.08Zm.21-7.69c.09-.05.14-.12.15-.21.02-.09.03-.16.03-.23l-.21.03.03.41Zm.21.51c0,.05.04.09.13.13h.13s.08-.11.14-.22c.06-.11.09-.18.09-.22,0-.02.02-.04.05-.08.03-.03.07-.05.1-.05-.02-.02-.04-.04-.08-.08-.03-.03-.06-.04-.08-.03l-.05-.03s-.03,0-.03.01c0,0,0,.01-.03.01h-.03s-.08.08-.14.18c-.06.1-.09.17-.09.21-.02.02-.04.04-.06.08-.03.03-.05.06-.06.08Zm.69,5.58c0,.07.03.13.08.18.05.05.15.15.3.3.15.15.3.21.45.19,0-.19-.08-.36-.24-.5-.16-.15-.36-.2-.58-.17Zm.18-4.96c-.07.02-.1.07-.1.17s.03.13.1.12c.07,0,.1-.05.1-.14s-.03-.14-.1-.14Zm.03-1.08s-.05.03-.05.08.02.06.05.03c.03-.02.05-.04.05-.06s-.02-.04-.05-.04Zm.21,3.32c.02.26.15.37.39.33h.18c-.12-.26-.31-.37-.57-.33Z"/><path class="cls-2" d="m694.83,56.67s-.13-.03-.3-.1c-.16-.07-.25-.09-.27-.05-.05.03-.09.11-.13.23-.03.12-.05.2-.05.23-.09-.07-.15-.11-.19-.12-.04,0-.12-.01-.22-.01-.17,0-.33.03-.48.08-.15.05-.3.08-.45.08s-.26-.03-.32-.1c-.06-.07-.09-.16-.1-.27,0-.11,0-.23.01-.36.02-.13.03-.24.03-.35-.05,0-.14-.05-.26-.15-.12-.1-.24-.22-.37-.35-.13-.13-.24-.25-.33-.37-.09-.12-.14-.2-.14-.23.07,0,.16,0,.28-.03.12-.02.18-.07.18-.15.02-.03.02-.14.01-.31,0-.17-.01-.27-.01-.31.02-.12.06-.21.13-.28.07-.07.14-.13.22-.19s.15-.13.22-.21c.07-.08.11-.18.13-.32.14.09.23.2.28.35.05.15.14.26.26.35.03-.05.08-.13.14-.24.06-.11.13-.17.22-.17.24,0,.4.09.48.28.08.19.12.38.14.57.02,0,.03,0,.04.01,0,0,.02.01.04.01h.03c.12,0,.21-.09.27-.26.06-.17.12-.36.17-.55.05-.2.11-.38.17-.55.06-.17.14-.26.24-.26.24,0,.44.08.59.23s.34.23.57.23c.1,0,.18-.03.23-.1.05-.07.09-.15.13-.23.03-.09.07-.16.12-.23.04-.07.09-.1.14-.1,0,.19.07.32.21.39.07-.22.12-.42.17-.6.04-.18.1-.33.17-.46.07-.13.17-.23.31-.31.14-.08.34-.12.62-.12-.05-.17-.03-.31.05-.42.09-.11.21-.21.36-.3.15-.09.31-.17.46-.24.15-.08.27-.16.33-.24.09-.07.14-.14.17-.22s.05-.16.08-.26c.03-.09.06-.18.1-.27.04-.09.12-.17.22-.26.07-.22.13-.54.19-.94.06-.4.11-.83.15-1.27.04-.45.07-.88.08-1.3,0-.42,0-.76-.01-1.02l.28-.15s-.06-.05-.13-.09c-.07-.04-.12-.07-.15-.09v-.05c0-.12.03-.23.08-.33.05-.1.08-.21.08-.33,0-.03,0-.12-.01-.24,0-.13-.03-.26-.05-.4-.03-.14-.06-.26-.09-.37-.03-.11-.08-.17-.13-.17l-.33.03v-.44c.07,0,.1,0,.1.01,0,0,0,.02-.03.04-.02.02-.03.03-.03.04,0,0,.05.01.15.01v-1s-.02-.04-.06-.08c-.04-.03-.07-.06-.09-.08-.03-.02-.11-.06-.22-.14-.11-.08-.19-.12-.24-.14,0,.05-.04.17-.12.35s-.16.3-.24.35v-.26h-.26v.88h-.69c0,.26.11.39.33.39,0,.12-.03.25-.08.39-.05.14-.14.22-.26.26,0-.14-.03-.22-.09-.26-.06-.03-.12-.05-.19-.05-.09,0-.16.03-.23.09-.07.06-.16.09-.28.09-.14,0-.23-.05-.27-.15-.04-.1-.13-.15-.27-.15-.09,0-.17,0-.24.01-.08,0-.16.06-.24.14.05-.09.03-.18-.08-.28-.05-.05-.11-.1-.18-.15-.05.09-.13.15-.23.21-.1.05-.2.09-.28.13-.09.03-.16.08-.23.14-.07.06-.1.14-.1.24-.03-.03-.08-.09-.14-.15-.06-.07-.11-.11-.14-.13-.03-.02-.13-.06-.28-.14s-.23-.13-.23-.17c-.05-.03-.04-.12.03-.24.07-.13.1-.21.1-.24-.02,0-.06-.02-.13-.06-.07-.04-.11-.05-.13-.01-.03.02-.07.09-.1.22s-.06.2-.08.22c-.03.05-.12.09-.26.13-.14.03-.24.03-.31,0-.02,0-.05-.02-.1-.06-.05-.04-.11-.09-.17-.15-.06-.06-.12-.11-.18-.15-.06-.04-.1-.06-.12-.06h-.54s-.1-.07-.21-.22c-.1-.15-.17-.22-.21-.22-.03-.02-.12-.07-.27-.15-.15-.09-.24-.13-.27-.13-.02-.03-.02-.12,0-.24.02-.13.02-.2,0-.22-.02-.02-.09-.04-.21-.06-.12-.03-.19-.05-.21-.06-.15-.15-.28-.4-.37-.73-.09-.33-.17-.69-.22-1.07-.05-.38-.09-.74-.1-1.09-.02-.35-.03-.63-.03-.84v-.6c0-.18,0-.36.03-.53.02-.17.04-.35.08-.53.03-.18.09-.39.18-.63.19-.03.3-.12.33-.26.03-.14.1-.25.21-.33l.13.31s.09-.03.18-.03h.53c.08,0,.12,0,.14.03.03.02.09.09.15.21.07.12.11.19.13.21.03.02.06.04.09.08.03.03.05.05.06.05l.23-.26c.15.09.26.19.32.31.06.12.11.24.14.37.03.13.06.26.09.39.03.13.08.25.17.37,0,.09,0,.23.03.42.02.2.03.41.05.63.02.22.03.43.05.63.02.2.03.33.03.4,0,.03.01.12.04.26.03.14.05.28.08.44.03.15.05.31.08.45.03.15.05.25.06.32.03.14.12.26.26.37.14.11.29.21.46.28.17.08.35.14.53.18.18.04.33.06.45.06.09,0,.15-.03.18-.08.03-.05.09-.08.18-.08.1,0,.23.07.37.22.15.15.28.22.4.22s.21-.05.28-.14c.07-.09.1-.19.1-.3,0-.14-.05-.22-.15-.26-.1-.03-.2-.1-.28-.21.31,0,.6-.05.86-.14.27-.09.49-.29.68-.58.02-.03.04-.12.06-.24.03-.13.05-.19.06-.19.15-.14.29-.21.41-.23.12-.02.23-.04.32-.06.09-.03.17-.09.22-.18.05-.09.09-.28.1-.55h.23v.54c.05.02.1.03.15.03.03,0,.07,0,.12.01.04,0,.08,0,.12-.01.22-.07.41-.18.57-.33.15-.15.23-.33.23-.54-.03,0-.08-.03-.13-.09-.05-.06-.09-.09-.13-.09-.02.03-.04.1-.06.19-.03.09-.05.15-.06.17h-.08c-.14,0-.21-.09-.22-.28,0-.19-.01-.32-.01-.39,0-.1,0-.26.01-.46,0-.21.03-.42.06-.63.03-.21.08-.4.14-.55.06-.15.15-.23.27-.23.09,0,.18.04.27.13.09.09.19.17.3.26.1.09.2.15.3.21.09.05.19.05.3,0,.03.03.08.09.14.17.06.08.12.17.19.27.07.1.13.2.19.28.06.09.11.15.14.18.07.1.1.23.1.37s0,.29-.01.44c0,.15-.01.29-.01.44s.03.27.1.37c.07.12.12.18.17.18s.07,0,.09-.03c.02-.02.03-.02.03,0v.26c0,.24-.03.54-.09.9-.06.36-.12.66-.19.9-.17-.09-.35-.05-.54.12-.19.16-.33.31-.41.45.26-.09.45-.13.57-.13s.21.03.26.09c.05.06.08.15.09.27,0,.12.02.26.04.41l.15.44-.98.13v.1s.05.07.14.12c.09.04.2.09.32.13.12.04.23.09.33.14.1.05.16.1.18.15,0,.03-.01.15-.04.35-.03.2-.03.31-.01.35-.02.02-.08.04-.18.08-.05.02-.11.03-.18.05-.1,0-.17-.03-.21-.1-.03-.07-.06-.15-.09-.23-.03-.09-.06-.16-.09-.23-.03-.07-.1-.1-.21-.1,0,.21-.03.35-.09.42-.06.08-.12.13-.18.15-.06.03-.12.05-.18.08-.06.03-.09.09-.09.19,0-.03.11-.06.32-.06.21,0,.42.03.63.13s.36.26.45.5c.09.24.02.59-.22,1.05,0,.05-.01.16-.04.33-.03.17-.04.34-.04.5s.03.28.09.36c.06.08.17.05.32-.09-.12.12-.2.25-.23.4-.03.15-.06.29-.09.42-.03.14-.07.26-.13.37-.06.11-.17.2-.32.27v1.05h-.18s-.03-.04-.05-.08c-.05-.05-.08-.09-.08-.1h-.1c-.03.09-.1.24-.19.48-.09.23-.14.4-.14.5,0,.19.06.36.19.5.13.15.19.36.19.63-.1,0-.18-.03-.23-.08-.05-.05-.1-.11-.14-.18-.04-.07-.08-.13-.12-.18-.03-.05-.09-.08-.18-.08-.12,0-.19.07-.22.21-.03.14-.04.26-.04.36,0,.36.19.54.57.54-.02,0-.03,0-.03.03v.1c-.03.05-.09.19-.15.41-.07.22-.11.38-.13.46-.02-.03-.08-.09-.18-.17s-.17-.12-.21-.14h-.03s-.03,0-.05-.03l-.05.03s-.05.02-.09.05-.06.07-.06.1v.15s.03.13.08.3c.05.16.08.26.08.3,0,.02-.02.04-.06.06-.04.03-.07.05-.09.06l-.8.95c-.03.14-.08.21-.13.22-.05,0-.11,0-.17-.01-.06-.02-.12-.02-.18,0-.06.02-.1.09-.12.21-.05.24-.1.43-.15.58-.05.15-.11.27-.18.39-.07.11-.15.22-.26.33-.1.11-.23.25-.39.42v.13l.1.15c.03.05.06.1.08.15-.03.02-.06.03-.08.05-.03.02-.06.04-.06.06,0,.03-.02.05-.04.06h-.05c-.05,0-.11-.03-.18-.1-.07-.07-.15-.15-.24-.23-.09-.09-.2-.16-.32-.23-.12-.07-.25-.1-.39-.1-.1,0-.18.03-.23.09-.05.06-.09.14-.12.23-.03.09-.06.18-.09.27-.03.09-.09.15-.15.21.02-.05.02-.13,0-.23-.02-.1-.04-.2-.06-.3-.03-.09-.06-.18-.09-.26-.03-.08-.07-.12-.1-.12h-.23v1.05l-.44-.15v.72c-.26-.09-.39-.22-.4-.41,0-.19-.01-.39-.01-.62Zm-3.78-17.62h.15c0-.14-.05-.24-.15-.31v.31Zm.08-2.96c0,.14.07.28.22.42.15.15.29.22.42.22,0-.17-.07-.32-.21-.45-.14-.13-.28-.19-.44-.19Zm0,3.4c0,.19.09.28.26.28s.26-.09.26-.28h-.51Zm.75-4.73h.13v-.13l-.13.13Zm.54,2.55s.02-.05-.04-.05-.09.02-.09.05c.03.05.06.08.09.08s.04-.03.04-.08Zm0,18.21c-.07,0-.1.04-.1.13s.03.13.1.13c.09,0,.13-.04.13-.13s-.04-.13-.13-.13Zm.49.41c-.14,0-.23.1-.28.31s-.08.37-.08.49c.21,0,.42-.02.63-.06.21-.04.44-.14.68-.3v-.13c0-.09-.02-.16-.06-.22-.04-.06-.11-.09-.19-.09l-.08.03s-.04.08-.08.19c-.03.11-.05.18-.05.22-.03-.03-.11-.11-.22-.22-.11-.11-.18-.18-.22-.19l-.05-.03Zm-.33-19.65h.15v-.15h-.15v.15Zm.95,19.04s-.15,0-.33.01c-.19,0-.32.01-.39.01-.02,0-.03.02-.05.06-.02.04-.03.08-.03.12h.8v-.21Zm-.26-.8h.13l-.13-.21v.21Zm.26-.8s-.05.01-.05.09.02.12.05.12c.07-.03.1-.08.1-.13s-.03-.08-.1-.08Zm.15-14.84c-.09,0-.13.05-.13.15s.04.15.13.15.13-.05.13-.15-.04-.15-.13-.15Zm.8,15.28h.31l-.13-.13-.18.13Zm.18,1.8h.13l-.13-.18v.18Zm.39-15.15h.18c0-.07,0-.15-.03-.23-.02-.09-.07-.15-.15-.18v.41Zm.15,12.35c.02-.05,0-.08-.06-.08s-.09.03-.09.08c.03.05.07.08.1.08s.05-.03.05-.08Zm.44.44c0,.05,0,.1.01.15,0,.05.06.11.14.18,0-.02,0-.05.01-.1,0-.05.01-.09.01-.1,0-.05,0-.1-.03-.15-.02-.05-.07-.09-.15-.1v.13Zm.41-12.01l.13-.18-.13-.18-.13.18.13.18Zm.26,12.45l.13-.1h-.13v.1Zm.28,1.05v-.15h-.15l.15.15Zm0,.46c0,.1.04.18.12.23s.17.09.27.12.2.04.28.05c.09,0,.14.01.15.01v-.62c.09,0,.14.01.15.04.02.03.07-.03.15-.17-.19-.09-.39-.13-.59-.13-.14,0-.23.03-.28.08-.05.05-.14.17-.26.36v.03Zm.13-2.68c-.07,0-.1.05-.1.14s.03.14.1.14c.09,0,.13-.05.13-.14s-.04-.14-.13-.14Zm0,.72c.05.1.15.15.31.15,0-.05-.01-.11-.04-.17-.03-.06-.06-.1-.12-.12l-.15.13Zm.15-.57c-.09,0-.13.05-.13.14s.04.14.13.14c.07,0,.1-.05.1-.14s-.03-.14-.1-.14Zm.69,2.93c-.09,0-.13.05-.13.14s.04.14.13.14.13-.05.13-.14-.04-.14-.13-.14Zm1.62-16.03s-.01.08-.04.13l-.08.15c-.03.05-.04.09-.04.13s.03.05.1.05c.15,0,.28-.05.39-.14.1-.09.15-.22.15-.37,0-.09-.01-.18-.04-.28-.03-.1-.12-.14-.3-.1l.1-.31s-.02-.03-.06-.03h-.09c-.1,0-.16.03-.18.08-.02.05-.02.12-.01.19,0,.08.03.16.05.26.03.09.04.18.04.24Zm1.13-1.18h.31c0-.07-.02-.13-.06-.19-.04-.06-.1-.09-.17-.09h-.08v.28Zm.44-2.21c-.09,0-.13.05-.13.15s.04.15.13.15c.07,0,.1-.05.1-.15s-.03-.15-.1-.15Zm.51,2.55c.1,0,.21-.07.33-.21h-.33v.21Zm0,3.91h.33s-.05-.04-.1-.08c-.05-.03-.09-.05-.1-.05l-.05-.03s-.03,0-.04.01c0,0-.02.01-.04.01v.13Zm.33-6.15c.02.09.06.13.13.14.07,0,.13.01.18.01h.23c-.03-.07-.1-.13-.19-.19-.09-.06-.18-.09-.24-.09s-.1.04-.1.13Zm.1,7.92c-.05,0-.08.05-.08.15s.03.15.08.15c.07,0,.1-.05.1-.15s-.03-.15-.1-.15Zm.13-4.81l.18-.18v-.13l-.18.31Zm.31,7.49h.13l-.13-.13v.13Z"/><path class="cls-3" d="m457.42,27.53v89.45"/><path class="cls-1" d="m27.02,87.32c-5.74,0-11.03-1.22-15.87-3.66-4.84-2.44-8.55-5.9-11.15-10.38l8.02-5.78c1.73,3.62,4.27,6.45,7.61,8.5,3.34,2.05,7.38,3.07,12.09,3.07,4.17,0,7.43-.81,9.79-2.42,2.36-1.61,3.54-3.72,3.54-6.31,0-1.65-.53-3.17-1.59-4.54-1.06-1.38-3.09-2.38-6.08-3.01l-14.16-2.95c-5.74-1.18-9.85-3.15-12.33-5.9-2.48-2.75-3.72-6.17-3.72-10.27,0-3.22.92-6.17,2.77-8.85,1.85-2.67,4.48-4.82,7.91-6.43,3.42-1.61,7.45-2.42,12.09-2.42,5.82,0,10.74,1.14,14.75,3.42,4.01,2.28,7,5.51,8.97,9.68l-7.91,5.19c-1.34-3.46-3.5-6-6.49-7.61-2.99-1.61-6.1-2.42-9.32-2.42-2.83,0-5.25.39-7.26,1.18-2.01.79-3.54,1.87-4.6,3.25-1.06,1.38-1.59,2.93-1.59,4.66s.59,3.32,1.77,4.78c1.18,1.46,3.38,2.5,6.61,3.13l14.75,3.07c5.51,1.1,9.36,2.91,11.56,5.43,2.2,2.52,3.3,5.59,3.3,9.2s-.98,6.94-2.95,9.73c-1.97,2.79-4.72,4.94-8.26,6.43s-7.63,2.24-12.27,2.24ZM103.37,27.14v8.14h-42.72v-8.14h42.72Zm-21.48-16.76v59.47c0,2.91.83,5.07,2.48,6.49s3.78,2.12,6.37,2.12c2.28,0,4.25-.39,5.9-1.18,1.65-.79,3.15-1.85,4.48-3.19l3.3,7.91c-1.81,1.65-3.95,2.95-6.43,3.89-2.48.94-5.33,1.42-8.55,1.42-2.99,0-5.78-.53-8.38-1.59-2.6-1.06-4.66-2.75-6.19-5.07-1.53-2.32-2.34-5.37-2.42-9.15V12.98l9.44-2.6Zm35.52,75.76V27.14h7.67l1.3,9.68c1.65-3.62,4.07-6.33,7.26-8.14,3.19-1.81,7.06-2.71,11.62-2.71,1.02,0,2.14.08,3.36.24,1.22.16,2.26.47,3.13.94l-1.65,8.61c-.87-.31-1.81-.55-2.83-.71-1.02-.16-2.48-.24-4.37-.24-2.44,0-4.9.71-7.38,2.12s-4.54,3.56-6.19,6.43c-1.65,2.87-2.48,6.51-2.48,10.92v31.86h-9.44Zm80.95-38.11c0-4.4-1.18-7.81-3.54-10.21-2.36-2.4-5.7-3.6-10.03-3.6-4.09,0-7.55.88-10.38,2.65s-4.92,4.62-6.25,8.56l-7.67-4.72c1.57-4.4,4.48-7.96,8.73-10.68,4.25-2.71,9.52-4.07,15.81-4.07,4.25,0,8.1.73,11.56,2.18,3.46,1.46,6.19,3.66,8.2,6.61,2.01,2.95,3.01,6.75,3.01,11.39v28.56c0,2.83,1.49,4.25,4.48,4.25,1.49,0,2.95-.2,4.37-.59l-.47,7.43c-1.57.79-3.62,1.18-6.14,1.18-2.28,0-4.33-.43-6.14-1.3-1.81-.86-3.23-2.18-4.25-3.95-1.02-1.77-1.53-3.99-1.53-6.67v-1.18l2.36.35c-.94,3.07-2.56,5.57-4.84,7.49-2.28,1.93-4.84,3.34-7.67,4.25-2.83.9-5.62,1.36-8.38,1.36-3.46,0-6.69-.59-9.68-1.77-2.99-1.18-5.37-2.97-7.14-5.37-1.77-2.4-2.65-5.37-2.65-8.91,0-4.4,1.47-8.04,4.42-10.92,2.95-2.87,7.06-4.82,12.33-5.84l23.36-4.6v7.79l-19,3.89c-3.85.79-6.73,1.89-8.61,3.3-1.89,1.42-2.83,3.38-2.83,5.9s.96,4.42,2.89,5.96c1.93,1.53,4.66,2.3,8.2,2.3,2.28,0,4.46-.29,6.55-.88,2.08-.59,3.95-1.49,5.6-2.71,1.65-1.22,2.95-2.75,3.89-4.6.94-1.85,1.42-4.03,1.42-6.55v-16.28Zm32.33,38.11V27.14h8.26l.83,13.22-1.53-1.3c1.26-3.15,2.95-5.68,5.07-7.61,2.12-1.93,4.58-3.32,7.38-4.19,2.79-.86,5.68-1.3,8.67-1.3,4.25,0,8.1.81,11.56,2.42,3.46,1.61,6.23,4.07,8.32,7.38,2.08,3.3,3.13,7.51,3.13,12.63v37.76h-9.44v-34.46c0-6.53-1.4-11.07-4.19-13.63-2.79-2.56-6.24-3.83-10.32-3.83-2.83,0-5.66.67-8.5,2.01-2.83,1.34-5.17,3.5-7.02,6.49-1.85,2.99-2.77,7-2.77,12.04v31.39h-9.44Zm96.05,1.18c-4.88,0-9.36-1.22-13.45-3.66-4.09-2.44-7.36-5.96-9.79-10.56-2.44-4.6-3.66-10.09-3.66-16.46s1.3-12.07,3.89-16.64c2.6-4.56,6.02-8.04,10.27-10.44,4.25-2.4,8.81-3.6,13.69-3.6s9.1,1.26,12.68,3.78c3.58,2.52,5.96,5.86,7.14,10.03l-1.18.83V0h9.44v86.14h-8.26l-.83-14.28,1.3-.71c-.55,3.46-1.87,6.39-3.95,8.79-2.09,2.4-4.64,4.23-7.67,5.49-3.03,1.26-6.24,1.89-9.62,1.89Zm.94-8.26c3.78,0,7.06-.94,9.85-2.83,2.79-1.89,4.96-4.58,6.49-8.08,1.53-3.5,2.3-7.61,2.3-12.33s-.77-8.34-2.3-11.56c-1.53-3.22-3.66-5.7-6.37-7.43-2.71-1.73-5.88-2.6-9.5-2.6-5.98,0-10.62,2.05-13.92,6.14-3.3,4.09-4.96,9.52-4.96,16.28s1.61,12.19,4.84,16.28c3.22,4.09,7.75,6.14,13.57,6.14Zm71.27,8.26c-5.74,0-11.03-1.22-15.87-3.66-4.84-2.44-8.55-5.9-11.15-10.38l8.02-5.78c1.73,3.62,4.27,6.45,7.61,8.5,3.34,2.05,7.38,3.07,12.09,3.07,4.17,0,7.43-.81,9.79-2.42,2.36-1.61,3.54-3.72,3.54-6.31,0-1.65-.53-3.17-1.59-4.54-1.06-1.38-3.09-2.38-6.08-3.01l-14.16-2.95c-5.74-1.18-9.85-3.15-12.33-5.9-2.48-2.75-3.72-6.17-3.72-10.27,0-3.22.92-6.17,2.77-8.85,1.85-2.67,4.48-4.82,7.91-6.43,3.42-1.61,7.45-2.42,12.09-2.42,5.82,0,10.74,1.14,14.75,3.42,4.01,2.28,7,5.51,8.97,9.68l-7.91,5.19c-1.34-3.46-3.5-6-6.49-7.61-2.99-1.61-6.1-2.42-9.32-2.42-2.83,0-5.25.39-7.26,1.18-2.01.79-3.54,1.87-4.6,3.25-1.06,1.38-1.59,2.93-1.59,4.66s.59,3.32,1.77,4.78c1.18,1.46,3.38,2.5,6.61,3.13l14.75,3.07c5.51,1.1,9.36,2.91,11.56,5.43,2.2,2.52,3.3,5.59,3.3,9.2s-.98,6.94-2.95,9.73c-1.97,2.79-4.72,4.94-8.26,6.43s-7.63,2.24-12.27,2.24Z"/></svg>