<?xml version="1.0" encoding="UTF-8"?><svg id="Layer_1" xmlns="http://www.w3.org/2000/svg" viewBox="0 0 356 356"><defs><style>.cls-1{fill:#fff;}</style></defs><path class="cls-1" d="m285.18,186.7c-3.7,0-7.15,1.1-10.03,2.98h0c-8.76.81-23.11-2.05-40.18-6.28,29.25-17.07,43.78-30.19,53.66-35.77l-.04-.09c.58.06,1.17.09,1.76.09,10.15,0,18.38-8.23,18.38-18.38s-8.23-18.38-18.38-18.38c-6.32,0-11.89,3.19-15.2,8.04h0c-59.73-11.2-90.22-34.76-124.41-59.75h0c.38-1.47.58-3.01.58-4.6,0-10.15-8.23-18.38-18.38-18.38s-18.38,8.23-18.38,18.38c0,6.2,3.08,11.68,7.78,15.01h0c4.24,46.12,16.37,73.52,25.65,90.47-23.24-7.43-44.57-15.94-62.73-24.68l-.08.18c-.88-9.33-8.74-16.64-18.3-16.64-10.15,0-18.38,8.23-18.38,18.38s8.23,18.38,18.38,18.38c3.74,0,7.21-1.12,10.11-3.03,25.09,9.08,40.71,15.4,82.4,26.93,3.15,4.91,7.4,10.97,12.11,17.58-2.15.92-4.35,1.84-6.59,2.76-21.7,8.9-47.19,17.6-72.42,22.12h0c-3.2-2.69-7.32-4.31-11.82-4.31-10.15,0-18.38,8.23-18.38,18.38s8.23,18.38,18.38,18.38c6.12,0,11.54-2.99,14.88-7.59h0c5.51-6.48,5.51-8.21,14.98-10.79,4.73-1.29,35.61-10.56,70.5-25.62,8.27,11.61,16.66,23.64,22.29,33.38,12.64,21.83,20.44,34.92,26.3,53.37-1.92,2.9-3.04,6.38-3.04,10.12,0,10.15,8.23,18.38,18.38,18.38s18.38-8.23,18.38-18.38c0-9.08-6.58-16.62-15.23-18.11-4.85-6.07-11.88-22.27-24.69-43.65-5.64-9.41-16.75-24.41-28.68-41.25,1.71-.79,3.41-1.6,5.12-2.41,5.42-2.59,10.5-5.14,15.29-7.62,36.13,9.41,42.34,11.16,52.33,15.77h0c2.17,7.73,9.27,13.4,17.69,13.4,10.15,0,18.38-8.23,18.38-18.38s-8.23-18.38-18.38-18.38Zm-124.96-36.48c-17.33-33.48-17.48-60.04-15.86-73.44,0,0,33.67,24.03,58.95,36.09,14.96,7.14,50.18,19.36,65.04,24.42h0c-9.65,10.63-33.44,28.44-49.52,37.06-1.66.89-3.74,2-6.19,3.28-9.17-2.42-18.71-4.94-28.28-7.3-5.04-1.24-10.02-2.55-14.95-3.9-3.36-5.53-6.47-10.97-9.18-16.2Zm25.2,40.77c-1.23-1.79-2.45-3.59-3.67-5.39,1.39.36,2.79.73,4.22,1.11,1.9.5,3.74.98,5.54,1.44-1.96.93-3.99,1.88-6.09,2.84Z"/></svg>